<svg xmlns="http://www.w3.org/2000/svg" xmlns:xlink="http://www.w3.org/1999/xlink"><symbol id="icon-alligator" viewBox="0 0 512 512"><g><circle cx="214.025" cy="276.633" r="6.254"/><path d="M374.986,151.08h-71.229c-27.01,0-49.332-20.463-52.274-46.701c-0.378-3.369-3.248-5.903-6.639-5.903l0,0   c-3.695,0-6.69,2.996-6.69,6.691v26.232c-0.001,28.687,11.171,55.657,31.455,75.942c20.285,20.285,47.256,31.456,75.943,31.456   h137.326c1.283,3.407,2.404,6.892,3.365,10.442H270.775c-12.707,0-25.167,3.45-35.778,9.793c-5.41-6.436-13.717-10.36-22.896-9.729   c-12.179,0.836-22.475,9.89-24.916,21.851c-0.842,4.123-0.69,8.104,0.188,11.806l-94.228,14.344l-0.703,0.147   c-3.296,0.885-6.823-0.081-9.205-2.51c-3.913-3.996-8.52-7.125-13.703-9.308c-5.174-2.167-10.628-3.265-16.211-3.265h-8.42   c-19.96,0-36.14,16.18-36.14,36.14v30.57c0,19.96,16.181,36.14,36.141,36.14h158.319c12.429,0,24.691-4.182,34.533-11.775   c12.049-9.309,21.962-21.445,28.671-35.1c2.576-5.246,4.701-10.751,6.318-16.355c1.977-6.814,3.215-13.821,3.701-20.908   c0.256-3.73-2.752-6.881-6.49-6.881h-0.01c-3.41,0-6.236,2.637-6.477,6.038c-0.316,4.53-0.99,9.023-2.006,13.442h-14.841   c-11.112,0-22.285,0.842-33.207,2.504c-10.62,1.613-21.176,4.016-31.4,7.131v-5.388c0-3.59-2.91-6.5-6.5-6.5l0,0   c-3.59,0-6.5,2.91-6.5,6.5v9.019c-10,2.462-20.16,4.18-30.413,5.137v-8.354c0-3.59-2.91-6.5-6.5-6.5l0,0c-3.59,0-6.5,2.91-6.5,6.5   v9.153c-2.147,0.065-4.298,0.107-6.45,0.107h-21.51v-9.261c0-3.59-2.91-6.5-6.5-6.5l0,0c-3.59,0-6.5,2.91-6.5,6.5v9.261h-27.96   v-9.261c0-3.59-2.91-6.5-6.5-6.5l0,0c-3.59,0-6.5,2.91-6.5,6.5v9.261h-7.45c-7.979,0-14.47-5.747-14.47-12.81v-1.67   c0-12.78,10.36-23.141,23.141-23.141h8.419c3.85,0,7.614,0.759,11.179,2.251c3.571,1.503,6.75,3.663,9.451,6.421   c5.571,5.682,13.767,7.988,21.475,6.064l98.403-14.979c3.157,3.443,7.181,6.081,11.722,7.562c4.182,1.363,8.471-1.803,8.471-6.2   v-0.002c0-2.832-1.849-5.295-4.536-6.189c-7.378-2.455-12.12-10.729-8.761-19.352c2.116-5.43,7.509-8.719,13.336-8.709   c7.488,0.015,12.479,4.053,13.924,11.873c0.549,2.969,3.205,5.086,6.225,5.086h0.164c4.032,0,7.131-3.541,6.564-7.504   c-0.052-0.367-0.108-0.694-0.169-0.969c8.789-5.494,19.277-8.483,30.003-8.483h218.188c0.834,5.577,1.271,11.282,1.271,17.089   v16.24c0,3.589,2.91,6.499,6.5,6.499l0,0c3.59,0,6.5-2.91,6.5-6.499v-16.24C503.234,208.499,445.816,151.08,374.986,151.08z    M36.235,345.989h27.931v9.964c0,3.59,2.91,6.5,6.5,6.5l0,0c3.59,0,6.5-2.91,6.5-6.5v-9.964h28.52v9.964c0,3.59,2.91,6.5,6.5,6.5   l0,0c3.59,0,6.5-2.91,6.5-6.5v-9.964h0.47c9.791,0,19.54-0.646,29.197-1.927v11.891c0,3.59,2.91,6.5,6.5,6.5l0,0   c3.59,0,6.5-2.91,6.5-6.5v-14.017c7.908-1.533,15.738-3.493,23.458-5.889c2.274-0.706,4.568-1.368,6.876-1.997v8.402   c0,3.59,2.91,6.5,6.5,6.5l0,0c3.59,0,6.5-2.91,6.5-6.5v-11.502c3.547-0.729,7.112-1.373,10.687-1.916   c10.278-1.563,20.793-2.355,31.253-2.355h10.759c-0.807,2.01-1.672,3.995-2.624,5.934c-5.837,11.879-14.465,22.441-24.947,30.54   c-7.576,5.847-17.019,9.065-26.589,9.065H44.905c-12.779,0-23.14-10.359-23.14-23.139v-6.976   C25.97,344.563,30.927,345.989,36.235,345.989z M345.553,225.797c-25.215,0-48.92-9.819-66.75-27.648   c-11.615-11.616-19.811-25.735-24.125-41.132c4.223,6.668,9.215,12.917,14.932,18.634c18.652,18.65,42.953,29.597,69.045,31.24   c3.738,0.235,6.898-2.75,6.898-6.496v0c0-3.414-2.641-6.263-6.049-6.477c-22.939-1.441-44.305-11.063-60.701-27.459   c-4.076-4.076-7.729-8.462-10.945-13.1c10.322,6.774,22.658,10.721,35.9,10.721h71.229c44.236,0,82.734,25.056,102.045,61.717   H345.553z"/><path d="M375.186,207.107h12.412c3.59,0,6.5-2.91,6.5-6.5v-0.001c0-3.589-2.91-6.5-6.5-6.5h-12.412c-3.59,0-6.5,2.91-6.5,6.5v0.001   C368.686,204.197,371.596,207.107,375.186,207.107z"/><path d="M455.094,371.813C455.094,371.813,455.094,371.813,455.094,371.813c-3.379-15.416-17.135-26.992-33.549-26.992   c-16.561,0-30.42,11.779-33.645,27.398l0,0h-48.658l0,0C336.02,356.6,322.158,344.82,305.6,344.82   c-16.561,0-30.42,11.779-33.645,27.398l0,0h-12.27c-3.59,0-6.5,2.91-6.5,6.5l0,0c0,3.59,2.91,6.5,6.5,6.5h11.563v0.001v15.304l0,0   h-11.563c-3.59,0-6.5,2.91-6.5,6.5l0,0c0,3.59,2.91,6.5,6.5,6.5h11.563h58.68h10.023l0,0V385.22v-0.001h47.242v0.001v15.304l0,0   h-12.008c-3.59,0-6.5,2.91-6.5,6.5l0,0c0,3.59,2.91,6.5,6.5,6.5h12.008h49.938h18.766l0,0v-28.711c0-0.001,0-0.001,0-0.001   c24.193-2.931,43.5-21.958,46.83-46.028c0.541-3.915-2.49-7.414-6.441-7.414h-0.002c-3.23,0-5.988,2.369-6.426,5.568   C487.389,354.968,473.105,369.281,455.094,371.813z M326.951,400.523h-42.703l0,0v-20.856c0-11.112,8.293-20.747,19.359-21.755   c12.666-1.154,23.344,8.829,23.344,21.26V400.523L326.951,400.523z M442.896,400.523L442.896,400.523h-5.766h-36.938l0,0v-20.856   c0-11.112,8.293-20.747,19.359-21.755c12.666-1.154,23.344,8.829,23.344,21.26V400.523z"/><path d="M366.436,303.536l33.49,20l33.494-20l24.582,14.678c3.084,1.841,7.074,0.833,8.914-2.249l0,0   c1.84-3.082,0.834-7.072-2.248-8.912l-31.248-18.658l-33.494,20l-33.49-20l-33.49,20l-24.578-14.678   c-3.082-1.84-7.072-0.834-8.912,2.248l0,0c-1.842,3.082-0.834,7.073,2.248,8.914l31.242,18.657L366.436,303.536z"/></g></symbol><symbol id="icon-bear" viewBox="0 0 512 512"><g><path d="M116.681,151.859c-1.397,1.713-3.566,2.205-5.415,1.589c-1.76-0.588-3.682-0.384-5.12,0.789l-0.518,0.423   c-4.13,3.369-2.79,9.901,2.259,11.343c1.614,0.462,3.286,0.694,4.961,0.694c3.983,0,7.992-1.318,11.313-4.026   c7.657-6.248,8.805-17.56,2.558-25.216c-4.188-5.136-10.656-7.344-16.771-6.356c-4.634,0.747-6.82,6.186-4.181,10.067l0,0   c1.403,2.063,3.869,3.183,6.331,2.779c0.45-0.074,0.875-0.096,1.231-0.059c1.618,0.163,3.038,1.096,3.847,2.573   C118.112,148.169,117.913,150.35,116.681,151.859z"/><circle cx="76.461" cy="148.783" r="6.051"/><path d="M73.843,204.37c32.942,19.996,58.75,49.008,74.632,83.897l0.245,0.539c8.428,18.617,12.156,39.234,10.778,59.623   l-1.528,22.624c-2.81,2.141-5.19,4.821-6.985,7.897c-2.41,4.129-3.684,8.846-3.684,13.637l0.001,0.295   c0.157,7.947,6.754,14.412,14.706,14.412h37.332c1.036,0,2.064-0.053,3.086-0.134c0.667,0.08,1.334,0.134,1.987,0.134h36.031   c10.029,0,19.778-3.398,26.762-9.337c1.939-1.659,3.645-3.483,5.058-5.404c1.479-1.995,2.684-4.14,3.581-6.37l2.557-6.352   c5.656-14.045,7.924-29.061,6.662-43.82c-0.32-3.751-3.797-6.424-7.514-5.822l0,0c-3.354,0.543-5.723,3.58-5.426,6.965   c1.121,12.795-0.815,25.491-5.781,37.822l-2.559,6.354c-0.484,1.206-1.146,2.379-1.98,3.504c-0.838,1.141-1.863,2.232-3.033,3.232   c-4.656,3.959-11.335,6.229-18.327,6.229h-12.293c3.508-3.979,6.213-8.705,7.83-13.754l8.228-25.744   c2.352-7.373,4.148-14.988,5.339-22.645c0.875-5.678,1.424-11.426,1.643-17.154c7.26-0.632,22.247-0.66,42.262,6.011   c4.717,1.571,9.705,3.554,14.986,5.651c8.513,3.383,17.199,6.824,25.838,9.041c11.491,8.137,21.631,17.825,30.275,28.844   l-7.924,4.484c-8.512,4.818-13.784,13.907-13.734,23.695c0.04,8.067,6.639,14.57,14.707,14.57h48.552h4.782h41.369   c4.64,0,9.182-1.334,13.084-3.844l0.35-0.225c6.693-4.309,10.836-11.631,11.084-19.586l1.332-42.839   c0.771-15.509,3.355-30.937,7.68-45.854c5.428-18.733,8.18-38.118,8.18-57.616c0-28.794-11.215-55.872-31.582-76.249   c-19.479-19.48-50.078-31.582-79.853-31.582h-38.384c-3.588,0-6.496,2.908-6.496,6.496v0.008c0,3.588,2.908,6.496,6.496,6.496   h38.384c26.454,0,53.528,10.643,70.659,27.772c17.911,17.921,27.775,41.736,27.775,67.059c0,18.273-2.579,36.441-7.666,53.998   c-4.611,15.904-7.363,32.354-8.181,48.891l-1.339,43.017c-0.115,3.68-2.031,7.066-5.129,9.061l-0.342,0.221   c-1.805,1.16-3.906,1.777-6.053,1.777h-41.369h-3.297c0.477-6.44,4.148-12.288,9.819-15.498l14.587-8.258   c3.123-1.768,4.221-5.73,2.454-8.854l-0.004-0.006c-1.767-3.123-5.731-4.221-8.854-2.453l-1.618,0.916   c-2.225-8.414-5.221-16.688-8.994-24.703c-0.056-0.128-0.131-0.29-0.229-0.475c-4.496-9.488-10.058-18.594-16.53-27.065   l-29.284-38.338c-2.18-2.853-6.258-3.399-9.111-1.22l0,0c-2.853,2.18-3.398,6.258-1.22,9.111l29.283,38.336   c0.771,1.008,1.524,2.025,2.265,3.053c-8.811,3.279-20.219,6.268-38.838,6.268c-11.621,0-25.096-5.354-38.127-10.53   c-5.456-2.168-10.61-4.216-15.674-5.903c-21.016-7.005-37.211-7.394-46.264-6.74v-45.969c0-3.587-2.908-6.495-6.496-6.495h-0.008   c-3.587,0-6.496,2.908-6.496,6.495v53.381c0,6.924-0.539,13.93-1.6,20.815c-1.087,6.987-2.728,13.946-4.876,20.679L223.6,376.58   c-1.158,3.615-3.059,6.857-5.646,9.633c-2.394,2.563-5.241,4.571-8.473,5.974c-3.208,1.399-6.619,2.108-10.14,2.108h-37.332   c-0.939,0-1.707-0.768-1.707-1.707l0,0c0-2.492,0.661-4.941,1.912-7.084c1.258-2.156,3.065-3.941,5.256-5.18l13.759-7.789   c2.734-1.543,5.639-2.688,8.67-3.41c2.565-0.627,5.21-0.945,7.863-0.945h2.995c3.59,0,6.5-2.91,6.5-6.5l0,0   c0-3.59-2.91-6.5-6.5-6.5h-2.995c-3.691,0-7.375,0.443-10.914,1.309c-4.178,0.996-8.218,2.586-12.017,4.73l-3.292,1.863   l0.932-13.797c1.526-22.594-2.565-45.215-11.909-65.842l-0.254-0.561c-14.028-30.817-35.305-57.333-62.135-77.666l5.836,1.162   l28.308-3.745c3.559-0.471,6.062-3.737,5.591-7.297l0,0c-0.471-3.559-3.738-6.062-7.296-5.591l-26.174,3.463l-36.733-7.314   c-9.433-1.879-18.692-4.767-27.52-8.583c-0.708-0.306-1.384-0.662-2.025-1.063c9.369-3.721,15.703-12.921,15.649-23.143   l-0.016-3.116c0.263-0.254,0.528-0.505,0.781-0.77l0.327-0.343l4.761-6.729c2.306-3.259,4.968-6.268,8.046-8.81   c10.697-8.831,22.037-10.382,28.674-10.382h26.601c19.932,0,39.853,2.403,59.21,7.144l26.266,6.432   c14.37,4.159,28.955,6.164,43.389,5.973l62.626-0.005c3.587-0.001,6.495-2.909,6.495-6.496v-0.009c0-3.587-2.908-6.496-6.496-6.496   l-62.367,0.001l-0.434,0.006c-13.182,0.181-26.545-1.671-39.722-5.497l-26.666-6.535c-20.368-4.987-41.329-7.517-62.302-7.517   H96.381c-6.435,0-12.854,1.117-18.931,3.224c-2.853-4.578-7.712-7.838-13.484-8.394c-5.917-0.565-11.662,1.763-15.608,6.495   c-1.362,1.634-2.412,3.521-3.08,5.542c-2.214,6.701-0.389,13.309,3.744,17.852l-4.161,5.88c-1.431,1.406-3.184,2.474-5.093,3.098   l-9.857,3.219C23,149.13,18.138,155.47,17.992,162.74c-0.231,11.504,6.507,21.953,17.034,26.504   c9.304,4.022,19.048,7.092,28.976,9.152L73.843,204.37z M397.457,329.978c2.059,3.511,3.963,7.094,5.686,10.743l0.281,0.597   l0.008,0.01c3.854,8.248,6.813,16.782,8.857,25.456l-1.234,0.699c-9.74,5.514-15.927,15.694-16.42,26.813h-37.033   c-0.927,0-1.705-0.74-1.708-1.667c-0.015-5.075,2.724-9.786,7.14-12.284l13.793-7.809c5.041-2.854,10.735-4.353,16.527-4.353h1.236   c3.59,0,6.5-2.91,6.5-6.5l0,0c0-3.59-2.91-6.5-6.5-6.5h-1.236c-5.846,0-11.639,1.122-17.055,3.253   c-5.6-7.367-11.805-14.201-18.576-20.453C375.744,337.316,387.599,333.863,397.457,329.978z M57.352,122.157   c0.126-1.309,0.754-2.49,1.768-3.326c1.015-0.836,2.296-1.228,3.602-1.103c1.073,0.104,2.024,0.555,2.775,1.22   c-2.71,1.721-5.276,3.66-7.665,5.805C57.454,123.97,57.263,123.085,57.352,122.157z M32.328,164.531l-1.25,0.364   c-0.062-0.592-0.102-1.188-0.09-1.793c0.034-1.779,1.261-3.317,2.954-3.87l6.155-2.01   C38.838,160.682,35.996,163.466,32.328,164.531z"/></g></symbol><symbol id="icon-camel" viewBox="0 0 512 512"><g><circle cx="80.354" cy="144.877" r="5.947"/><path d="M489.802,246.77c-5.848-1.924-10.081-7.437-10.081-13.92v-24.131c0.824-16.816-4.05-32.684-13.981-44.664   c-10.547-12.724-25.874-19.73-43.158-19.73c-1.164,0-2.241-0.63-2.746-1.605c-15.32-29.622-59.061-50.409-76.918-50.409   c-0.005,0-0.009,0-0.014,0c-8.4,0-23.161,4.766-36.87,11.717c-3.293,1.669-4.514,5.763-2.687,8.971l0.026,0.047   c1.714,3.011,5.49,4.118,8.579,2.549c13.778-6.999,26.246-10.284,30.955-10.284c0.002,0,0.004,0,0.006,0   c12.808,0,52.413,18.319,65.375,43.381c2.755,5.325,8.231,8.633,14.293,8.633c13.537,0,25.001,5.196,33.15,15.027   c7.173,8.652,11,20.005,11.091,32.274h-0.102v3.798c-0.152,2.784-0.478,5.602-1.013,8.439l-1.825,9.676l-7.721,23.568v1.038   c0,1.451,0.169,35.354,14.656,45.765c0.125,0.468,0.257,1.593-0.023,3.497l-5.915,49.729l-0.046,0.382v60.554h-6.767v-83.269   c0-1.264-0.079-2.521-0.214-3.769l0.007-0.025l-0.009-0.003c-1.083-10.001-6.379-19.374-14.644-25.61   c-6.031-4.557-10.777-16.469-13.365-33.557l-0.028-0.186c-0.054-0.35-0.108-0.689-0.148-1.034l-0.021-0.161   c-1.352-9.498-1.618-17.619-1.668-19.909c-0.043-2.355-1.316-4.554-3.344-5.76c-2.007-1.193-4.511-1.276-6.587-0.229   c-6.579,3.254-25.111,9.939-40.664,9.939c-10.678,0-21.378-1.347-31.794-4c-4.7-1.204-9.3-2.75-14.084-4.737l-0.353-0.143   c-0.152-0.062-0.304-0.123-0.47-0.193c-2.295-0.963-4.951-0.925-7.096,0.338c-3.369,1.986-4.677,5.98-3.355,9.464   c1.006,2.642,1.834,5.401,2.462,8.201c0.964,4.297,1.448,8.671,1.44,13.013c0,1.758-0.089,3.576-0.266,5.412   c-1.377,14.438-7.707,25.024-12.775,31.363l-1.442,1.804l0.02,2.31c0.132,15.444,10.421,43.601,10.872,44.825l20.91,55.917h-7.983   l-51.262-135.451c-2.735-11.152-9.774-20.812-19.884-27.239l-3.368-2.141l-0.385-0.227c-20.714-11.251-29.071-21.395-30.531-38.255   c-0.287-3.32-3.103-5.852-6.435-5.852h-0.04c-3.804,0-6.8,3.272-6.448,7.06c1.195,12.875,5.735,22.515,12.775,30.397l4.602,18.392   l-17.715-6.504c-9.678-3.554-19.921-5.169-30.23-5.204c-24.539-0.081-47.59-12.067-61.751-32.108l-19.309-32.313   c2.334-1.235,4.528-2.734,6.533-4.473c3.104-2.69,2.79-7.615-0.531-10.032l-0.053-0.039c-2.419-1.76-5.735-1.638-8.001,0.315   c-3.305,2.849-7.418,4.66-11.8,5.12c-1.798,0.188-3.628,0.289-5.438,0.297c-0.09,0-0.177,0-0.267,0   c-12.543,0-22.272-4.24-28.238-7.812l-1.542-0.923H40.168c-5.26,0-9.539-4.279-9.539-9.539c0-1.28,0.813-2.421,2.024-2.839   l45.724-17.824c5.333-2.08,10.941-3.132,16.667-3.126c6.847,0.007,13.166,3.688,16.572,9.627l31.938,55.691   c5.965,10.404,17.122,16.868,29.115,16.868c14.263,0,26.938-8.874,31.54-22.082c4.947-14.196,17.177-24.929,31.917-28.011   c6.777-1.417,13.723-2.267,20.645-2.523c8.028-0.297,15.274-5.079,18.684-12.353c2.534-5.408,6.623-10.739,12.189-15.898   c2.49-2.309,2.719-6.175,0.593-8.824c-2.331-2.905-6.657-3.277-9.39-0.745c-6.818,6.316-11.902,12.999-15.154,19.93   c-1.354,2.886-4.167,4.78-7.353,4.896c-7.669,0.282-15.365,1.221-22.875,2.792c-19.179,4.01-35.092,17.979-41.531,36.457   c-2.785,7.991-10.527,13.36-19.265,13.36c-7.348,0-14.183-3.959-17.838-10.334l-31.938-55.692c-1.428-2.49-3.166-4.744-5.149-6.725   c-0.494-14.171-7.488-27.676-19.397-37.26c-2.728-2.194-6.551-2.625-9.742-1.097c-3.052,1.461-4.947,4.416-4.947,7.71v22.322   c-3.399,0.669-6.742,1.632-10.003,2.904l-45.38,17.696c-6.373,2.264-10.646,8.306-10.646,15.08   c0,12.428,10.111,22.539,22.539,22.539h10.44c7.46,4.191,18.881,8.735,33.324,8.735c0.109,0,0.22,0,0.329,0   c2.124-0.011,4.268-0.13,6.381-0.341l21.119,35.342l0.26,0.4c16.563,23.594,43.619,37.718,72.433,37.829   c9.045,0.035,18.024,1.536,26.515,4.654l25.34,9.305l11.104,44.377l-4.688,93.688h-1.604c-3.59,0-6.5,2.91-6.5,6.5   s2.91,6.5,6.5,6.5h32.757l9.521-95.781l0.013-12.756l36.157,95.539h-2.558c-3.59,0-6.5,2.91-6.5,6.5s2.91,6.5,6.5,6.5h43.181   l-27.462-73.437c-2.596-7.065-9.096-26.816-9.965-38.269c5.642-7.574,11.998-19.196,13.839-34.521   c8.803,2.226,21.559,4.543,40.569,4.543c6.933,0,13.666-0.541,20.096-1.608c3.086,14.372,7.144,29.989,15.696,36.462   c5.983,4.533,9.498,11.188,9.717,18.347l-17.875,75.483h-4.406c-3.59,0-6.5,2.91-6.5,6.5s2.91,6.5,6.5,6.5h31.338l13.328-51.051   v38.049h-3.436c-3.59,0-6.5,2.91-6.5,6.5s2.91,6.5,6.5,6.5h36.202v-72.783l5.836-49.081c1.405-9.743-2.63-14.071-5.167-15.785   c-5.369-3.63-9.151-20.71-9.334-34.261l1.608-4.911c3.443,5.62,8.837,9.922,15.232,11.956c4.146,1.318,8.361-1.882,8.361-6.232   v-0.004C494.371,250.125,492.505,247.659,489.802,246.77z M96.657,106.507c3.021,3.765,5.256,7.948,6.612,12.339   c-2.144-0.573-4.358-0.919-6.612-1.037V106.507z M270.432,327.325l-8.325,83.746h-6.364l4.751-94.967l-15.791-63.111   c2.382,1.485,4.871,2.925,7.466,4.338l3.181,2.022c7.269,4.62,12.491,11.812,14.315,19.661c0.386,2.057,0.768,14.166,0.768,17.795   V327.325z M377.174,269.39c-19.694,0-32.089-2.667-40.228-4.901c-0.238-3.478-0.71-6.956-1.455-10.392   c2.283,0.743,4.568,1.406,6.88,1.999c11.473,2.921,23.253,4.404,35.012,4.404c13.794,0,28.566-4.271,38.041-7.781   c0.199,2.683,0.484,5.769,0.893,9.101c-4.14,1.721-9.274,3.604-15.679,5.061C393.315,268.546,385.421,269.39,377.174,269.39z    M421.698,411.073h-3.531l17.526-74.012v-0.759c0-11.535-5.423-22.259-14.88-29.423c-5.423-4.105-9.285-21.561-10.874-29.004   c3.173-0.938,6.01-1.937,8.519-2.909c3.455,16.559,9.126,27.918,16.917,33.804c4.889,3.689,8.115,8.823,9.241,14.508   L421.698,411.073z"/></g></symbol><symbol id="icon-giraffe" viewBox="0 0 512 512"><g><path d="M87.839,73.279h7.29c5.711,3.144,14.303,6.466,25.104,6.466c0.084,0,0.168,0,0.252,0c1.792-0.009,3.604-0.112,5.388-0.307   c10.786-1.182,19.502-8.589,22.807-18.461c1.395-4.165-1.454-8.706-5.845-8.82c-2.873-0.075-5.542,1.691-6.4,4.424   c-1.668,5.309-6.267,9.309-11.977,9.935c-1.335,0.146-2.693,0.224-4.035,0.23c-0.063,0-0.125,0-0.189,0   c-8.9,0-15.802-3.009-20.035-5.542l-1.542-0.923H87.839c-2.962,0-5.372-2.41-5.372-5.372c0-0.228,0.145-0.432,0.361-0.506   l39.545-15.415h16.37c11.624,0,21.587,7.906,24.227,19.227l25.718,110.26c8.561,36.701,36.898,72.009,70.408,91.71   c-2.188,3.826-3.283,8.245-3.072,12.843c0.537,11.657,9.776,21.362,21.396,22.437c12.684,1.171,23.568-7.739,25.564-19.625   l23.143,3.894c3.037,0.511,6.096,0.874,9.168,1.088l0,0c16.55,2.258,29.347,16.477,29.347,33.636v6.531   c-2.609,0.151-5.196,0.822-7.62,2.018c-9.783,4.836-13.819,16.73-8.992,26.52c3.352,6.777,10.176,10.804,17.306,10.995   c1.653,10.567,6.305,18.592,13.916,23.903c0.122,0.47,0.249,1.586-0.027,3.463l-5.94,49.941v49.344h-6.352v-78.645   c0-12.209-5.74-23.559-15.749-31.137c-11.073-8.387-15.09-29.08-16.159-41.252c-0.292-3.322-3.094-5.853-6.43-5.819l-0.194,0.002   c-3.72,0.037-6.632,3.229-6.306,6.935c0.404,4.586,1.229,11.009,2.904,17.896c-10.357,3.448-21.129,5.229-32.131,5.285   c-12.227,0.067-24.586-2.105-36.109-6.3l1.49-16.484c0.32-3.544-2.132-6.882-5.666-7.309c-3.656-0.441-6.928,2.226-7.257,5.868   l-3.896,43.107c-0.321,3.545,2.131,6.883,5.665,7.31c3.656,0.441,6.928-2.226,7.257-5.867l1.201-13.29   c11.842,3.916,24.379,5.967,36.789,5.967c0.197,0,0.396-0.001,0.593-0.002c3.554-0.019,7.085-0.205,10.591-0.54   c3.207,10.358,8.519,18.406,15.85,23.956c6.736,5.102,10.6,12.674,10.6,20.775v0.492l10.518,69.051h-4.469   c-3.559,0-6.662,2.743-6.77,6.301c-0.11,3.681,2.842,6.699,6.498,6.699h50.531v-61.574l5.816-48.912   c1.4-9.721-2.627-14.039-5.16-15.752c-6.256-4.229-9.298-11.637-9.298-22.646v-37.783h-0.024   c-0.195-9.713-3.35-18.706-8.602-26.121c14.944,8.59,25.016,24.74,24.92,43.2c-0.109,21.243,17.404,38.388,38.647,38.388h3.177   c3.559,0,6.662-2.742,6.77-6.3c0.109-3.681-2.842-6.7-6.498-6.7h-3.448c-14.136,0-25.663-11.436-25.646-25.571   c0.041-34.499-28.013-62.578-62.503-62.578h-8.271c-1.612-0.188-3.247-0.298-4.904-0.317l-18.683-3.207   c-3.068-12.667-12.08-23.366-24.674-28.583c-27.855-11.54-57.408-47.095-64.544-77.69l-14.595-60.457   c-5.939-24.604-20.879-45.626-42.1-59.348c-1.137-1.241-2.355-2.399-3.644-3.474V18.602c0-3.559-2.743-6.663-6.3-6.769   c-3.681-0.111-6.7,2.84-6.7,6.497v9.351c-2.081-0.642-4.234-1.111-6.444-1.39v-7.688c0-3.559-2.743-6.663-6.3-6.769   c-3.681-0.111-6.7,2.84-6.7,6.497v7.657h-10.649L78.444,42.163c-5.376,1.922-8.978,7.025-8.978,12.745   C69.467,65.038,77.708,73.279,87.839,73.279z M364.643,347.443c-2.074-0.361-3.962-1.665-4.956-3.676   c-1.656-3.36-0.268-7.447,3.092-9.107c0.598-0.295,1.226-0.486,1.864-0.596V347.443z M353.933,487.17h-0.289l-10.672-70.058   c-0.159-12.011-5.878-23.149-15.748-30.625c-4.693-3.553-8.264-8.784-10.669-15.587c4.181-0.888,8.313-2.012,12.39-3.363   c3.188,7.818,7.777,15.206,14.392,20.215c6.734,5.1,10.597,12.672,10.597,20.773V487.17z M279.659,282.566   c-5.878,0-10.66-4.782-10.66-10.66c0-2.043,0.575-3.99,1.629-5.662c6.438,2.985,13,5.367,19.588,7.061   C289.528,278.522,285.062,282.566,279.659,282.566z M196.127,100.616l14.583,60.408c8.084,34.658,40.48,73.551,72.217,86.699   c6.731,2.789,11.978,7.829,14.981,13.996c-43.079-8.621-86.072-51.234-96.561-96.198L177.914,65.05   C186.643,75.174,192.91,87.288,196.127,100.616z"/><path d="M232.252,493.67c0,3.59,2.91,6.5,6.5,6.5h43.649l-32.273-72.672l1.836-20.314c0.323-3.576-2.313-6.736-5.889-7.059   c-3.575-0.323-6.736,2.313-7.059,5.888l-2.14,23.677l25.527,57.48h-3.949l-29.548-59.971l-10.344-52.008l-2.942-14.709l-1.204-1.33   c-2.75-3.036-5.247-6.273-7.473-9.662c1.957-0.951,3.777-2.215,5.365-3.803c7.71-7.725,7.708-20.285-0.009-28.002   c-4.84-4.83-11.648-6.611-17.947-5.35c-0.057-0.777-0.103-2.316-0.137-3.999c-0.073-3.521-2.944-6.338-6.464-6.338   c-3.672,0-6.606,3.052-6.462,6.721c0.17,4.314,0.483,9.067,0.935,11.949c1.651,10.681,5.164,20.887,10.434,30.327   c1.755,3.154,3.717,6.211,5.855,9.156v74.525l-8.16,52.492h-7.254l8.406-52.992v-52.685l-21.203-69.812   c-2.527-9.096,0.681-11.841,5.532-15.992l0.836-0.718c8.338-7.21,11.194-18.927,7.106-29.153c-1.348-3.373-2.445-6.185-3.286-9.097   l-1.103-3.822c-2.298-7.647-4.771-14.495-7.162-21.117c-3.819-10.578-7.437-20.605-10.584-34.032   c9.196-1.705,16.187-9.771,16.187-19.454c0-10.917-8.882-19.8-19.8-19.8c-0.38,0-0.758,0.02-1.135,0.041   c-0.086-4.009-0.1-7.981-0.111-12.012c-0.042-14.526-0.084-29.546-3.41-49.66c-0.439-2.654-0.765-4.923-1.058-6.91   c-0.565-3.835-4.33-6.329-8.083-5.357c-3.239,0.839-5.318,3.987-4.81,7.294c0.299,1.943,0.665,4.316,1.125,7.094   c3.155,19.078,3.196,33.565,3.236,47.576c0.046,16.171,0.089,31.445,4.687,51.916c3.438,15.309,7.552,26.702,11.531,37.719   c2.439,6.755,4.743,13.136,6.919,20.375l1.083,3.754c1.005,3.48,2.272,6.73,3.705,10.316c2.032,5.083,0.61,10.908-3.539,14.496   l-0.785,0.674c-5.377,4.602-14.376,12.304-9.579,29.441l20.703,68.17v49.729l-8.569,54.017h-5.852c-3.59,0-6.5,2.91-6.5,6.5   s2.91,6.5,6.5,6.5h37.405l10.024-64.488V406.42l4.976,24.992l27.472,55.758h-5.21C235.163,487.17,232.252,490.08,232.252,493.67z    M159.111,185.002c-0.75-4.705-1.253-9.159-1.593-13.469c0.17-0.013,0.339-0.037,0.511-0.037c3.75,0,6.8,3.05,6.8,6.8   C164.829,181.676,162.347,184.48,159.111,185.002z M203.113,336.5c-0.689,0.688-1.506,1.203-2.389,1.539   c-1.826-4.152-3.283-8.444-4.355-12.854c2.316-0.678,4.933-0.111,6.744,1.697C205.762,329.531,205.76,333.848,203.113,336.5z"/></g></symbol><symbol id="icon-gorilla" viewBox="0 0 512 512"><g><circle cx="78.933" cy="128.396" r="6.254"/><path d="M273.992,154.844l0.004-0.063c0.196-3.514-2.458-6.532-5.967-6.804c-36.291-2.813-66.408-11.891-89.752-20.406   c-0.979-0.434-1.968-0.853-2.975-1.238v-0.205l-2.337-0.694c-6.962-10.82-12.163-20.313-16.245-29.685   c-7.591-17.404-27.63-31.245-47.648-32.909c-12.117-1.01-25.216,4.412-35.961,14.87c-9.377,9.126-15.994,20.981-18.439,32.903   l-9.798,6.941c-19.645,13.924-27.735,39.257-19.677,61.606c6.623,18.381,24.253,36.251,44.909,45.524   c6.095,2.741,12.185,4.532,17.934,5.321c0.685,36.935,7.643,73.174,20.732,107.81l30.38,80.33   c2.649,7.005,6.811,13.162,12.128,18.131h-8.468c-14.531,0-27.749-9.134-32.89-22.729l-30.38-80.33   c-8.381-22.174-6.831-35.193-4.685-53.213c0.909-7.637,1.919-16.113,2.245-26.252c0.117-3.662-2.836-6.692-6.5-6.692   c-3.517,0-6.381,2.801-6.496,6.315c-0.313,9.602-1.283,17.75-2.157,25.092c-2.186,18.35-4.073,34.197,5.433,59.348l30.38,80.33   c7.085,18.736,25.025,31.131,45.056,31.131h19.024c2.724,0,5.353-0.848,7.557-2.344c4.76,1.549,9.716,2.344,14.803,2.344h19.021   c7.394,0,13.437-5.967,13.46-13.359c0.025-8.423-3.245-16.348-9.198-22.301c-5.926-5.939-13.813-9.21-22.212-9.21h-2.354   c-3.59,0-6.5,2.91-6.5,6.5s2.91,6.5,6.5,6.5h2.354c4.92,0,9.54,1.915,13.015,5.396c3.48,3.48,5.396,8.104,5.396,13.019   c0,0.25-0.21,0.455-0.46,0.455h-19.021c-5.156,0-10.13-1.101-14.802-3.279c-8.388-3.879-14.812-10.785-18.088-19.449l-30.38-80.329   c-13.244-35.044-19.96-71.799-19.96-109.242v-37.52c0-13.724,5.343-26.62,15.049-36.316c9.691-9.701,22.588-15.044,36.312-15.044   c4.645,0,9.231,0.617,13.651,1.834l0.774,0.229c2.153,0.817,4.392,1.647,6.674,2.481c16.403,7.43,27.92,23.209,29.935,41.176   c0.363,3.233,3.172,5.639,6.425,5.639h0.046c3.853,0,6.873-3.349,6.438-7.177c-1.217-10.681-5.113-20.743-11.071-29.36   c18.085,5.015,38.726,9.229,61.829,11.019C270.646,161.219,273.79,158.463,273.992,154.844z M66.178,207.848   c-13.331-8.391-24.336-20.844-28.751-33.095c-3.223-8.938-3.011-18.517,0.114-27.12c16.129,1.678,28.637,12.856,28.637,26.362   V207.848z M152.333,122.098c-4.919,0-9.749,0.566-14.429,1.633c-0.618-7.691-5.41-14.143-12.02-17.201   c-4.407-2.041-9.414,1.332-9.204,6.185c0.104,2.402,1.504,4.598,3.698,5.579c2.604,1.163,4.479,3.728,4.609,6.767   c0.052,1.193-0.182,2.35-0.65,3.42c-6.412,3.102-12.328,7.284-17.509,12.469c-12.16,12.148-18.856,28.31-18.856,45.509v30.389   c-2.823-0.516-5.777-1.358-8.795-2.49v-40.362c0-18.527-14.818-34.116-34.756-38.41c2.277-2.768,4.938-5.276,7.969-7.424   l14.23-10.081l0.41-2.74c3.204-21.412,23.497-40.993,40.963-39.545c15.286,1.271,31.111,12.084,36.81,25.148   c2.967,6.812,6.581,13.843,10.914,21.253C154.592,122.138,153.465,122.098,152.333,122.098z"/><path d="M456.605,173.547c-9.479-9.479-21.748-17.542-35.479-23.316c-19.823-8.337-42.107-10.807-64.452-7.139   c-12.504,2.052-26.221,3.639-41.932,4.852c-3.323,0.256-6.662,0.46-9.982,0.61c-3.519,0.159-6.264,3.092-6.178,6.613l0.002,0.063   c0.088,3.622,3.131,6.475,6.75,6.312c3.463-0.156,6.943-0.369,10.408-0.636c16.085-1.242,30.163-2.873,43.037-4.985   c19.926-3.268,39.741-1.093,57.308,6.294c12.194,5.128,23.026,12.226,31.325,20.524c19.012,19.023,29.482,44.303,29.482,71.181   c0,19.359-2.732,38.607-8.122,57.208l-7.125,24.574l-14.24,86.854v4.233c0,5.241-4.25,9.491-9.491,9.491h-48.844   c0.292-9.124,6.375-16.686,18.167-18.47c3.213-0.485,5.554-3.311,5.554-6.56c0-3.824-3.217-6.85-7.035-6.643   c-0.892,0.048-1.638,0.104-2.07,0.17c-3.607-8.752-6.935-17.75-9.872-26.836c-2.168-6.685-4.174-13.57-5.962-20.469   c-2.882-11.091-5.278-22.552-7.122-34.057c-0.706-4.439-1.374-9.616-2.021-15.633c2.951,0.703,5.938,1.268,8.952,1.658   c1.527,0.201,3.073,0.362,4.633,0.482c3.726,0.287,6.887-2.719,6.887-6.455c0-3.381-2.574-6.248-5.944-6.511   c-1.309-0.103-2.607-0.237-3.89-0.407c-16.277-2.109-31.69-9.664-43.399-21.27l-0.665-0.656   c-12.63-12.804-20.149-29.313-21.537-47.084c-0.265-3.389-3.05-6.023-6.449-6.023h-0.062c-3.751,0-6.746,3.183-6.46,6.922   c1.626,21.232,10.719,40.935,26.013,56.077l1.911,1.881h0.058c7.736,7.204,16.733,12.952,26.436,16.992   c0.68,7.011,1.384,13.027,2.129,18.251c-9.459,7.182-19.956,13.329-29.265,17.09c-18.529,7.482-39.803,9.721-63.226,6.652   c-37.354-4.869-70.219-21.908-82.783-29.118c-1.102-9.886-0.998-19.862,0.336-29.71c1.051-7.813,2.855-15.527,5.364-22.932   l5.024-14.834c1.146-3.383-0.668-7.055-4.051-8.201l-0.061-0.021c-3.383-1.146-7.055,0.668-8.201,4.051l-5.024,14.833   c-2.776,8.195-4.773,16.73-5.936,25.363c-1.631,12.039-1.616,24.258,0.039,36.295c0.356,2.662,0.803,5.352,1.326,7.992   l11.058,55.891c0.697,3.521,4.116,5.812,7.639,5.115c3.521-0.696,5.812-4.116,5.115-7.639l-9.876-49.914   c15.848,8.198,42.677,20.049,72.888,24.912c1.174,5.523,8.814,38.587,26.391,53.893c-7.616,5.988-12.507,15.295-12.451,25.727   c0.035,6.761,5.607,12.193,12.368,12.193h49.484c12.422,0,22.491-10.069,22.491-22.491v-3.178l9.903-60.604   c1.699,6.385,3.564,12.749,5.572,18.941c2.989,9.244,6.37,18.406,10.034,27.33c-9.344,5.796-15.549,16.19-15.418,28   c0.074,6.688,5.679,12.002,12.367,12.002h49.484c12.422,0,22.491-10.069,22.491-22.491v-3.179l13.835-84.664l7.017-24.199   c5.73-19.777,8.636-40.243,8.636-60.827C489.895,223.57,478.073,195.027,456.605,173.547z M352.973,422.555v4.233   c0,5.241-4.25,9.491-9.491,9.491h-48.844c0-10.354,5.933-16.849,16.806-18.469c3.266-0.486,5.725-3.217,5.725-6.518   c0-3.856-3.307-6.902-7.146-6.551c-0.824,0.076-1.547,0.164-2.063,0.264c-13.618-5.719-22.87-31.712-26.514-45.866   c4.47,0.37,8.877,0.577,13.201,0.577c17.384,0,33.558-2.986,48.282-8.933c7.61-3.075,15.895-7.556,23.872-12.843L352.973,422.555z"/></g></symbol><symbol id="icon-hippo" viewBox="0 0 512 512"><g><circle cx="145.845" cy="133.77" r="6.891"/><path d="M476.566,178.332c0-18.064-8.695-35.422-23.855-47.623c-2.934-2.36-7.051-2.82-10.484-1.175   c-3.252,1.558-5.273,4.695-5.273,8.189v15.195c-19.768-15.984-47.299-25.647-74.178-25.647h-58.779c-3.59,0-6.5,2.91-6.5,6.5l0,0   c0,3.59,2.91,6.5,6.5,6.5h58.779c27.084,0,54.807,10.899,72.35,28.442c18.338,18.348,28.438,42.731,28.438,68.66   c0,18.695-2.637,37.285-7.836,55.249l-7.002,24.131l-13.273,81.251h-18.715v-1.514c0-8.212-0.801-16.423-2.371-24.381   c-0.492-2.541-1.07-5.086-1.715-7.555c-2.021-7.774-4.779-15.309-8.215-22.537c1.193,0.207,2.391,0.396,3.59,0.55   c1.359,0.179,2.725,0.324,4.096,0.438c3.813,0.315,7.096-2.654,7.096-6.479l0,0c0-3.387-2.598-6.195-5.973-6.473   c-1.184-0.097-2.365-0.223-3.541-0.377c-4.779-0.615-9.498-1.733-14.068-3.296l-3.006-1.108c-1.959-0.76-3.906-1.599-5.809-2.546   c-1.633-0.808-3.23-1.679-4.748-2.589l-0.139-0.082c-0.242-0.137-0.482-0.285-0.719-0.431l-0.146-0.09   c-9.457-5.812-17.584-13.837-23.533-23.259c-0.494-0.765-0.984-1.57-1.502-2.461c-3.357-5.796-5.898-12.044-7.549-18.568   c-0.98-3.883-1.639-7.86-1.967-11.885c-0.275-3.387-3.076-6.004-6.473-6.004h-0.006c-3.764,0-6.787,3.191-6.486,6.943   c0.383,4.782,1.162,9.512,2.328,14.131c1.947,7.695,4.943,15.063,8.904,21.9c0.621,1.072,1.219,2.051,1.791,2.938   c4.975,7.876,11.275,14.938,18.525,20.829c-7.357,2.485-15.488,4.185-26.281,4.769c-2.486,0.14-5.166,0.211-7.959,0.211   c-21.168,0-35.176-2.823-44.361-5.361c1.791-2.961,3.455-6.01,4.947-9.139c2.383-4.972,4.391-10.217,5.957-15.57   c2.215-7.471,3.584-15.197,4.09-23.046c0.24-3.734-2.754-6.888-6.496-6.888l0,0c-3.41,0-6.258,2.637-6.477,6.04   c-0.441,6.886-1.643,13.66-3.586,20.218c-1.377,4.701-3.131,9.286-5.219,13.641c-2.293,4.813-5.004,9.425-8.051,13.697   l-0.182,0.256c-0.133,0.188-0.268,0.378-0.408,0.563l-0.107,0.149c-0.131,0.184-0.27,0.377-0.447,0.615   c-0.68,0.928-1.459,1.936-2.381,3.08c-4.385,5.438-9.414,10.4-14.946,14.748l-3.192,2.508l11.576,53.879h-21.292l-6.659-20.904   c-1.09-3.42-4.746-5.311-8.167-4.221l0,0c-3.42,1.09-5.31,4.746-4.22,8.167l9.544,29.958h46.884L264.4,349.71   c5.063-4.304,9.713-9.073,13.863-14.22c0.143-0.177,0.275-0.345,0.412-0.518c9.367,2.869,25.941,7.105,52.186,7.105   c2.211,0,4.361-0.043,6.416-0.124c3.186,5.521,7.148,10.126,11.879,13.704c6.967,5.274,11.207,12.902,11.861,21.192l-18.098,21.618   h-2.059c-3.59,0-6.5,2.91-6.5,6.5l0,0c0,3.59,2.91,6.5,6.5,6.5h42.059l20.52-23.184c0.197,2.728,0.297,5.466,0.297,8.205v14.514   h44.324v-9.549l13.367-81.832l6.785-23.383c5.541-19.143,8.35-38.948,8.35-58.866h0.004V178.332z M377.066,398.469h-17.191   l14.23-17v-2.362c0-13.26-6.234-25.585-17.105-33.815c-1.787-1.352-3.43-2.931-4.932-4.722c10.895-1.677,19.076-4.559,26.209-7.634   c0.912,0.494,1.834,0.976,2.764,1.436c1.256,0.625,2.531,1.22,3.82,1.781l2.871,2.119c5.49,9.236,9.635,19.162,12.338,29.563   c0.313,1.199,0.604,2.42,0.881,3.648L377.066,398.469z M449.953,165.591V145.79c8.725,9.15,13.613,20.69,13.613,32.542v7.045   C459.797,178.362,455.246,171.729,449.953,165.591z"/><path d="M223.458,350.887c22.831-18.725,36.595-45.594,38.485-74.842c0.24-3.736-2.742-6.897-6.487-6.9l0,0   c-3.412-0.004-6.261,2.632-6.48,6.037c-1.699,26.308-14.358,50.432-35.315,66.9l-1.755,1.379l-3.871,15.73l-11.016,39.277h-19.733   l-10.719-51.526l-22.488-53.479c-1.25-2.973-0.088-6.435,2.702-8.052l5.123-2.969c24.594-14.254,42.903-36.542,51.553-62.758   c2.493-7.556,4.064-14.906,4.694-21.937c0.334-3.73-2.674-6.92-6.419-6.92h-0.188c-3.33,0-6.049,2.568-6.352,5.884   c-0.547,5.999-1.914,12.331-4.081,18.9c-7.651,23.188-23.89,42.928-45.726,55.583l-5.124,2.97   c-8.458,4.902-11.956,15.326-8.166,24.338l22,52.32l9.912,47.646h-4.247c-3.589,0-6.5,2.91-6.5,6.5l0,0c0,3.59,2.911,6.5,6.5,6.5   h47.114l13.706-48.869L223.458,350.887z"/><path d="M159.423,230.573L159.423,230.573c-3.047-1.361-6.62-0.197-8.289,2.693c-4.773,8.266-15.467,23.517-29.392,23.517h-37.07   c-0.506,0-0.886-0.013-1.199-0.041c-8.119-0.719-15.395-5.366-19.458-12.424l-0.591-1.03l30.639-4.892   c8.651-1.383,16.55-5.817,22.24-12.486c5.685-6.663,8.815-15.162,8.815-23.932c0-8.491-2.96-16.783-8.329-23.34   c-2.236-2.74-5.07-5.205-8.448-7.343c-3.892-2.439-8.372-3.728-12.955-3.728c-4.06,0-8.095,1.023-11.67,2.959   c-1.426,0.772-4.419,0.862-9.379,1.012l-0.825,0.025c-6.709,0.204-9.485,0.29-12.748-0.758c-1.619-0.52-4.987-1.602-8-4.602   l-0.124-0.124c-2.656-2.68-4.179-6.52-4.179-10.533v-5.064c2.446,0.939,5.065,1.456,7.747,1.456c2.051,0,4.136-0.294,6.199-0.911   c5.546-1.659,10.114-5.378,12.862-10.473c0.114-0.211,0.202-0.431,0.308-0.644c34.682,17.98,56.127,7.614,57.082,7.132l5.392-2.716   l-2.176-5.249c-1.104-2.662-1.315-5.658-0.35-8.372c1.243-3.493,4.043-6.104,7.667-7.102c4.923-1.354,10.275,0.924,12.737,5.396   c2.578,4.682,1.466,10.214-2.092,13.596c-1.906,1.812-2.42,4.654-1.414,7.083v0c1.763,4.251,7.259,5.367,10.558,2.157   c5.906-5.747,8.593-14.272,6.802-22.519c10.604,0.665,20.235,2.087,28.272,4.195c0.752,0.197,1.496,0.403,2.294,0.636l0.614,0.176   c0.442,0.127,0.883,0.254,1.258,0.353c13.447,3.728,27.092,5.614,40.636,5.614c0.648,0,1.3-0.004,1.948-0.013l26.577-0.006   c3.588,0,6.498-2.911,6.498-6.5v-0.001c0-3.59-2.91-6.5-6.5-6.5h-26.265l-0.532,0.01c-12.907,0.175-25.985-1.554-38.959-5.149   c-0.168-0.044-0.335-0.094-0.502-0.141c0.054-0.195,0.121-0.383,0.168-0.581c1.312-5.526-0.174-11.279-4.191-15.602   c-1.5-1.615-3.335-2.911-5.355-3.794c-5.292-2.315-11.1-1.883-15.851,1.046c-3.856,2.376-6.555,6.112-7.601,10.52   c-0.225,0.947-0.351,1.901-0.413,2.853c-3.297-0.227-6.676-0.385-10.125-0.47c-6.709-5.658-16.271-7.48-24.921-3.895   c-2.436,1.01-4.614,2.38-6.511,4.013c-6.048,0.022-11.184-0.067-15.634-0.27c-8.072-0.367-16.124-2.634-23.281-6.553   c-2.735-1.501-5.646-2.66-8.635-3.439c-3.012-0.793-6.118-1.213-9.22-1.248l-2.207-0.028c-7.771-0.276-15.13,1.478-21.129,4.902   c-0.077,0.022-0.154,0.034-0.231,0.057l0.019,0.063c-2.19,1.272-4.2,2.762-5.971,4.469c-5.608,5.405-8.573,12.498-8.573,20.511   v1.923l-0.027,0.008c0.008,0.026,0.019,0.051,0.027,0.078v18.993c0,7.414,2.896,14.588,7.937,19.675l0.155,0.156   c5.271,5.247,11.058,7.105,13.235,7.805c5.396,1.733,9.809,1.599,17.121,1.375l0.82-0.025c6.883-0.208,11.037-0.333,15.177-2.574   c3.567-1.933,8.113-1.791,11.507,0.337c2.169,1.373,3.955,2.909,5.312,4.571c3.478,4.249,5.394,9.615,5.394,15.112   c0,5.679-2.026,11.182-5.705,15.494c-3.428,4.018-8.098,6.76-13.239,7.848c-1.05-0.793-1.992-1.713-2.786-2.775   c-1.455-1.953-2.2-3.992-2.562-5.782c-0.56-2.772-2.869-4.846-5.683-5.137l0,0c-4.336-0.449-7.903,3.423-7.042,7.696   c0.527,2.613,1.491,5.521,3.182,8.429l-7.904,1.262c-2.139-0.789-4.721-2.238-6.734-4.931c-1.457-1.955-2.202-3.993-2.563-5.781   c-0.56-2.771-2.867-4.844-5.678-5.136l-0.006,0c-4.361-0.454-7.908,3.452-7.037,7.749c0.684,3.372,2.096,7.229,4.865,10.945   c0.344,0.46,0.698,0.895,1.056,1.317c-1.389,1.111-2.542,2.521-3.329,4.173c-1.69,3.547-1.525,7.696,0.431,11.082l1.358,2.367   c6.183,10.739,17.242,17.803,29.581,18.895c0.922,0.082,1.781,0.092,2.347,0.092h37.07c20.524,0,34.582-19.521,40.644-29.987   C164.327,236.444,162.959,232.153,159.423,230.573z M184.941,116.581c0.244-1.028,0.874-1.9,1.774-2.455   c0.9-0.555,1.961-0.725,2.991-0.482c1.028,0.244,1.9,0.874,2.455,1.774c0.555,0.899,0.726,1.961,0.482,2.99   c-0.046,0.193-0.118,0.375-0.19,0.556c-2.445-0.456-4.979-0.862-7.592-1.219C184.835,117.358,184.849,116.968,184.941,116.581z    M63.828,134.381c-1.1,2.039-2.928,3.527-5.146,4.19c-4.072,1.218-8.343-0.714-10.206-4.374c0.08-4.307,1.611-7.944,4.579-10.804   c0.656-0.632,1.391-1.2,2.16-1.737c4.091-0.467,8.068,2.042,9.289,6.123C65.168,129.998,64.928,132.342,63.828,134.381z    M85.158,120.657c8.892,4.869,18.9,7.684,28.94,8.14c2.579,0.118,5.372,0.198,8.409,0.244c-0.579,2.51-0.766,5.123-0.514,7.744   c-7.352,1.362-22.839,1.757-44.521-10.648c-0.137-0.698-0.308-1.394-0.514-2.083c-0.706-2.36-1.805-4.528-3.205-6.469   c1.924,0.049,3.843,0.314,5.722,0.809C81.446,118.907,83.356,119.668,85.158,120.657z"/></g></symbol><symbol id="icon-kangaroo" viewBox="0 0 512 512"><g><path d="M53.18,90.361l3.761,33.075c0.24,6.144,2.293,12.703,5.714,18.402v40.183c0,5.211-2.351,10.148-6.411,13.414   c-8.072,6.492-12.702,16.158-12.702,26.516v62.711l7.82,30.001c1.638,6.285,6.763,11.227,13.191,12.156   c6.667,0.963,13.048-2.166,16.371-8.044c2.018-3.57,2.445-7.826,1.499-11.816l-6.372-26.873v-30.011l8.13-11.723   c5.087,10.022,12.013,22.061,21.045,34.614l-6.253,7.64c-7.384,9.02-10.787,20.752-9.396,32.306   c0.848,7.047,6.145,12.942,13.173,13.926c8.722,1.22,16.484-4.965,17.501-13.421l0.959-7.973l5.816-6.331   c18.51,19.149,39.141,33.575,61.681,43.159c6.038,24.297,20.826,38.316,26.278,42.796l9.92,39.147   c1.018,4.017,0.299,7.838-2.025,10.76c-2.308,2.902-5.838,4.462-9.936,4.367l-0.072-0.002l-45.183,0.044   c-7.336-0.138-14.228,2.916-19.128,8.534c-4.02,4.609-6.053,10.624-6.053,16.739v6.014h30.712c-1.75,3.43-2.683,7.248-2.683,11.22   v6.5h87.983c17.219,0,31.178-13.959,31.178-31.178v-74.636c0-7.51,5.871-13.156,13.598-13.598l0.557-0.066   c0.646-0.077,1.292-0.191,1.924-0.351c42.239-10.636,69.473-45.807,69.473-89.867c0-13.57-2.915-26.472-8.148-38.114   c4.972,6.96,8.899,15.027,11.209,24.401l28.063,119.691c7.303,31.146,22.692,56.579,43.336,71.613l2.905,2.116   c-12.564-1.639-24.656-7.923-35.305-18.418c-12.933-12.747-22.797-30.72-28.538-52.021l-12.023-43.393   c-0.958-3.458-4.538-5.484-7.996-4.525l-0.006,0.001c-3.458,0.958-5.484,4.538-4.526,7.996l12.012,43.348   c6.329,23.483,17.379,43.488,31.953,57.854c14.995,14.778,32.652,22.591,51.064,22.591h33.89l-35.776-26.057   c-17.864-13.011-31.836-36.364-38.332-64.072L390.95,261.944c-10.11-41.037-45.421-60.401-73.263-69.421l-0.001,0.004   c-11.009-4.58-23.073-7.115-35.72-7.115l-12.881,0.884l-51.679,8.613c-1.229,0.205-2.474,0.277-3.714,0.399   c-3.415,0.334-5.972,3.272-5.843,6.7v0.005c0.141,3.749,3.418,6.601,7.151,6.229c2.458-0.245,4.912-0.571,7.344-0.977l48.267-8.045   l11.577-0.808c44.169,0.118,80.062,36.087,80.062,80.283c0,38.524-22.891,68.08-59.793,77.298   c-14.279,0.445-25.758,12.199-25.758,26.584v74.636c0,10.039-8.139,18.178-18.178,18.178h-73.024   c0.45-0.674,0.973-1.306,1.566-1.886c2.274-2.227,5.29-3.43,8.458-3.349l42.05,0.001c15.753,0,28.431-12.765,27.921-29.016   c-0.063-2.028-0.404-4.039-0.904-6.006l-18.652-73.388c2.067,0.552,4.164,0.979,6.282,1.276c3.888,0.548,7.348-2.522,7.348-6.448   v-0.001c0-3.235-2.382-5.975-5.585-6.425c-2.41-0.338-4.779-0.896-7.084-1.671c-2.49-0.841-4.908-1.935-7.183-3.249   c-12.25-7.086-19.861-20.265-19.861-34.394c0-1.83,0.123-3.649,0.368-5.421c2.407-17.686,16.479-31.438,33.778-33.899   c3.196-0.454,5.566-3.193,5.566-6.421v-0.009c0-3.922-3.456-6.997-7.34-6.448c-22.984,3.25-41.688,21.52-44.884,45.011   c-0.325,2.345-0.489,4.764-0.489,7.188c0,9.451,2.567,18.58,7.192,26.517c-29.169-8.031-55.392-24.062-78.208-47.833l5.348-5.821   c16.72-18.2,24.22-43.035,20.368-67.447l-0.138-0.877c-0.56-3.545-3.886-5.965-7.431-5.405l-0.005,0.001   c-3.544,0.56-5.964,3.886-5.405,7.431l0.138,0.876c3.252,20.618-2.981,41.259-17.103,56.629l-22.808,24.826l-1.449,12.051   c-0.104,0.859-0.611,1.657-1.408,1.997c-1.576,0.674-3.181-0.362-3.391-1.871c-1.147-8.23,1.213-16.639,6.478-23.069l15.87-19.386   c7.019-8.573,9.598-19.948,6.963-30.71l-6.353-25.954l-0.565-2.515l-2.224-1.401c-0.499-0.33-11.363-7.735-17.067-29.018   c-0.881-3.287-4.182-5.316-7.521-4.657c-3.698,0.729-5.997,4.448-5.014,8.088c5.572,20.638,15.742,31.021,20.309,34.819   l5.808,23.729c1.663,6.793,0.035,13.972-4.395,19.384l-1.076,1.313c-14.387-20.644-22.858-39.721-26.507-48.885   c-1.269-3.188-4.795-4.831-8.055-3.763l-0.025,0.008c-3.559,1.166-5.396,5.084-4.019,8.566c0.708,1.789,1.578,3.908,2.619,6.309   l-14.729,21.24v35.598l6.804,28.695c0.292,1.229-0.229,2.126-0.565,2.551c-0.358,0.453-1.188,1.232-2.604,1.13   c-1.179-0.086-2.379-1.198-2.677-2.344l-7.466-28.643v-61.104c0-6.43,3.042-12.396,8.02-16.465   c7.053-5.767,11.093-14.284,11.093-23.406v-27.551c3.158,1.579,6.491,2.422,9.853,2.422h7.33c8.445,0,15.877-5.064,21.047-12.213   c8.604,23.76,24.746,44.259,43.083,53.312c8.124,4.01,16.757,6.934,25.744,8.723c3.687,0.733,7.232-1.796,7.727-5.522l0-0.005   c0.451-3.39-1.806-6.55-5.16-7.217c-7.883-1.567-15.447-4.126-22.557-7.636c-19.474-9.613-36.721-36.309-41.242-63.693   l3.485-31.873c7.334-5.446,18.126-14.442,22.696-21.205c11.706-17.313,9.493-37.32,9.393-38.163l-0.702-5.926l-5.964,0.194   c-1.175,0.038-28.914,1.146-41.117,19.194c-0.952,1.409-4.4,6.588-7.313,11.866c-1.391-0.219-2.808-0.333-4.241-0.333H80.442   c-1.753,0-3.481,0.172-5.167,0.498c-3.075-5.918-7.326-12.306-8.401-13.896C54.67,24.948,26.931,23.842,25.756,23.803l-5.964-0.194   l-0.703,5.926c-0.1,0.844-2.313,20.852,9.393,38.162C33.491,75.109,45.967,85.198,53.18,90.361z M229.258,353.951   c0.51,0.359,1.027,0.709,1.551,1.051l21.234,83.548c0.658,2.586,0.614,5.287-0.148,7.916c-1.865,6.438-8.011,10.692-14.713,10.692   h-41.459l-38.275,0.034c0,0,0.914-0.938,1.606-1.465c2.529-1.925,5.252-3.416,8.438-3.344l0.072,0.001l45.183-0.044   c8.122,0.166,15.501-3.229,20.309-9.273c4.838-6.083,6.46-14.118,4.452-22.045l-11.063-43.659l-1.985-1.387   c-0.153-0.106-12.968-9.245-20.319-27.984C212.289,350.574,220.667,352.557,229.258,353.951z M120.042,52.143   c5.538-8.19,16.9-11.431,24.161-12.694c-0.353,5.878-1.883,14.807-7.311,22.834c-2.292,3.392-7.718,8.444-13.116,12.912   c-1.39-3.905-3.587-7.501-6.488-10.475c-1.032-1.059-2.133-2.019-3.289-2.886C115.805,58.667,118.009,55.15,120.042,52.143z    M92.838,143.893h-7.33c-1.203,0-2.436-0.295-3.664-0.849c1.323-2.663,4.065-4.503,7.236-4.503c3.207,0,5.975,1.882,7.281,4.595   C95.214,143.621,94.033,143.893,92.838,143.893z M70.151,73.824c2.772-2.855,6.427-4.429,10.291-4.429h17.275   c3.85,0,7.495,1.563,10.264,4.401c2.604,2.67,4.15,6.127,4.455,9.881c-0.013,0.008-0.027,0.019-0.041,0.026l0.044,0.071   c0.036,0.48,0.059,0.966,0.054,1.456l-4.035,36.896l-0.037,0.545c-0.086,3.492-1.17,7.333-2.909,10.777   c-2.69-3.35-6.378-5.854-10.612-7.073v-13.235c0-3.589-2.909-6.497-6.497-6.497h-0.006c-3.588,0-6.497,2.908-6.497,6.497v13.685   c-3.596,1.309-6.747,3.548-9.129,6.454c-1.716-3.415-2.748-7.152-2.848-10.52l-4.259-37.446   C65.6,80.95,67.188,76.878,70.151,73.824z M56.104,50.277c2.566,3.796,5.406,8.405,7.369,12.095   c-0.922,0.738-1.81,1.533-2.649,2.397c-2.836,2.922-4.993,6.437-6.378,10.252c-6.025-4.83-12.605-10.776-15.193-14.605   c-5.379-7.954-6.916-16.922-7.283-22.828C39.235,38.856,50.574,42.099,56.104,50.277z"/><path d="M283.195,271.123h13.601c3.59,0,6.5-2.91,6.5-6.5s-2.91-6.5-6.5-6.5h-13.601c-3.59,0-6.5,2.91-6.5,6.5   S279.605,271.123,283.195,271.123z"/></g></symbol><symbol id="icon-penguin" viewBox="0 0 512 512"><g id="Penguin"><g><path d="M289.854,443.445c2.299,0.91,4.7,1.354,7.082,1.354c4.51,0,8.953-1.594,12.506-4.643    c5.428-4.66,7.811-11.889,6.236-18.783l-21.029-97.764c-2.817-12.336-0.365-25.421,6.726-35.9    c6.612-9.775,10.108-21.178,10.108-32.979v-0.441c0-17.319-12.174-31.848-28.414-35.478c-4.068-0.91-7.938,2.179-7.937,6.347l0,0    c0,3.026,2.083,5.675,5.037,6.327c10.462,2.31,18.313,11.657,18.313,22.804v0.441c0,9.101-2.657,18.03-7.779,25.552    c-9.176,13.477-12.357,30.334-8.746,46.143l21.029,97.764c0.754,3.303-1.156,5.369-2.014,6.104    c-0.855,0.735-3.189,2.31-6.338,1.064c-22-8.7-38.731-26.619-45.903-49.163l-21.619-67.954    c-3.428-10.774-4.477-22.21-3.097-33.407c0.417-3.385-1.806-6.527-5.148-7.205c-3.696-0.749-7.28,1.791-7.745,5.533    c-1.622,13.077-0.403,26.436,3.601,39.021l21.619,67.954C244.704,412.414,264.207,433.303,289.854,443.445z"/><path d="M228.708,481.819c0.667,0.021,1.336,0.034,2.007,0.034h156.807c4.506,0,8.729-2.596,10.416-6.773    c1.904-4.714,0.334-10.006-3.734-12.923l-0.904-0.648c-28.309-20.3-45.098-52.998-45.098-87.832V163.973    c0-16.907-6.443-33.178-18.018-45.502l-0.401-0.428c-3.374-3.591-4.971-8.319-4.379-12.97c0.657-5.163,0.701-10.428,0.132-15.648    c-1.945-17.829-10.761-33.778-24.822-44.912c-14.061-11.131-31.615-16.05-49.424-13.853    c-16.927,2.089-32.263,10.574-43.182,23.891c-5.003,6.102-8.813,12.918-11.366,20.143h-37.487l-0.151,0.002    c-12.91,0.3-22.806,3.993-29.414,10.977c-8.018,8.473-7.939,18.415-7.903,19.521l0.201,6.292h51.405c3.59,0,6.5-2.91,6.5-6.5    s-2.91-6.5-6.5-6.5h-36.995c2.395-4.758,8.32-10.432,22.934-10.791h34.261c-0.624,4.564-0.787,9.211-0.434,13.885    c0.439,5.826,1.627,11.548,3.531,17.007c1.251,3.584,2.821,7.082,4.669,10.396c1.494,2.68,2.573,5.545,3.209,8.519    c1.848,8.638-0.187,17.488-5.581,24.28l-4.701,5.92l-0.116,0.151c-1.668,2.232-3.959,4.663-6.611,7.478    c-4.885,5.184-10.964,11.635-17.054,20.938c-2.748,4.197-5.308,8.703-7.611,13.391c-13.849,28.201-20.582,66.826-20.582,118.083    c0,41.182,10.856,81.887,32.268,120.985c4.378,7.994,10.342,14.798,17.377,20.127H127.06c1.151-4.568,3.516-8.758,6.929-12.178    c4.997-4.989,11.633-7.737,18.684-7.737h3.802c3.59,0,6.5-2.91,6.5-6.5s-2.91-6.5-6.5-6.5h-3.802    c-10.52,0-20.417,4.098-27.877,11.546c-7.44,7.452-11.538,17.35-11.538,27.869v6.5h115.45V481.819z M185.982,442.482    c-20.352-37.162-30.67-75.768-30.67-114.741c0-49.225,6.297-85.976,19.25-112.353c2.068-4.211,4.362-8.249,6.819-12.001    c5.461-8.342,10.868-14.081,15.638-19.143c2.897-3.075,5.403-5.734,7.502-8.53l4.645-5.849    c7.819-9.846,10.775-22.633,8.113-35.083c-0.906-4.239-2.443-8.32-4.567-12.129c-1.483-2.662-2.745-5.472-3.75-8.35    c-1.532-4.392-2.488-9.002-2.843-13.702c-0.331-4.388-0.094-8.715,0.646-12.908h22.26c3.361,0,6.086-2.725,6.086-6.085l0,0    c0-7.677,5.888-14.293,13.556-14.671c8.197-0.405,14.995,6.147,14.995,14.257v3.311l2.678,1.947    c2.578,1.874,15.473,12.126,16.17,29.979c0.234,6.023-0.982,11.884-3.617,17.421c-3.451,7.252-8.51,12.2-11.026,14.372h-7.931    c-7.806,0-13.835-1.12-19.033-8.172c-0.098-0.132-0.211-0.281-0.335-0.443c-1.99-2.579-5.591-3.281-8.406-1.643l0,0    c-3.465,2.016-4.286,6.656-1.739,9.751c0.875,1.063,1.681,1.973,2.225,2.471c9.579,8.79,15.618,11.035,27.289,11.035h14.92    c2.05,0,3.982,0.801,5.434,2.246c0.399,0.399,0.77,0.868,1.102,1.396c0.474,0.755,0.816,1.596,0.989,2.47    c0.977,4.924-2.778,9.257-7.524,9.257h-12.74c-6.72,0-13.049,2.62-17.832,7.39c-4.632,4.645-7.237,10.766-7.372,17.288    c-0.259,1.654-1.295,8.005-3.042,15.38c-2.589,10.981-5.514,19.158-8.454,23.64c-1.569,2.386-3.033,4.861-4.38,7.406    c-1.782,3.368-0.362,7.538,3.133,9.057c3.128,1.359,6.753,0.057,8.349-2.959c1.157-2.187,2.415-4.315,3.764-6.367    c3.82-5.824,7.266-15.175,10.24-27.787c2.159-9.118,3.269-16.576,3.315-16.889l0.07-0.472v-0.477c0-3.255,1.272-6.324,3.57-8.627    c2.316-2.31,5.386-3.583,8.64-3.583h12.181c11.365,0,21.024-8.931,21.235-20.294c0.085-4.517-1.274-8.853-3.912-12.506    c-0.649-0.9-1.369-1.747-2.146-2.525c-1.673-1.666-3.589-2.99-5.653-3.985c2.366-2.972,4.783-6.583,6.812-10.844    c3.549-7.456,5.187-15.368,4.869-23.515c-0.787-20.144-13.146-33.007-19.035-38.021c-1.631-13.494-13.152-23.984-27.078-23.984    c-12.801,0-23.57,8.863-26.492,20.775h-12.036c7.561-16.413,23.212-28.81,42.022-31.131c14.331-1.768,28.452,2.188,39.762,11.143    c11.313,8.956,18.404,21.787,19.969,36.129c0.459,4.207,0.424,8.446-0.104,12.599c-1.083,8.514,1.761,17.084,7.8,23.511    l0.401,0.427c9.31,9.914,14.493,23.003,14.493,36.603v209.703c0,37.137,17.189,72.322,46.236,95.178H230.715    C212.03,468.854,194.889,458.748,185.982,442.482z"/><circle cx="249.083" cy="81.732" r="6.305"/></g></g></symbol><symbol id="icon-racoon" viewBox="0 0 512 512"><g><circle cx="99.951" cy="225.569" r="5.857"/><path d="M393.678,114.521c-9.813-2.517-19.994-3.792-30.259-3.792H295.97c-8.089,0-16.097-1.986-23.165-5.748   c-14.469-7.675-24.05-21.823-25.958-37.812c-0.402-3.368-3.255-5.903-6.647-5.903l0,0c-3.702,0-6.703,3.001-6.703,6.702v24.47   c0,23.215,8.011,45.935,22.552,63.969c12.23,15.195,28.233,26.388,46.488,32.599c-3.314,0.558-6.432,1.146-9.262,1.768   c-19.994,4.399-36.365,6.448-51.517,6.448c-24.556,0-46.128-5.299-74.396-18.28c-5.325-3.036-10.978-5.549-16.855-7.515v-29.771   c0-3.239-1.197-6.423-3.528-8.672c-3.867-3.73-9.633-4.26-14.035-1.633c-6.792,4.046-12.646,9.277-17.407,15.556   c-3.859,5.105-6.63,9.991-8.47,14.931c-0.762,2.039-1.362,4.194-1.796,6.444c-18.533,4.633-33.709,17.614-41.153,35.467l-0.5,1.21   v0.048c-0.635,1.634-1.199,3.279-1.682,4.906l-3.318,11.187c-0.412,1.4-1.03,2.736-1.848,3.986   c-0.419,0.646-0.887,1.257-1.411,1.842c-0.569,0.642-1.193,1.23-1.854,1.751l-21.487,18.254c-1.654,1.4-2.954,3.109-3.863,5.083   c-0.898,1.95-1.354,4.034-1.354,6.192c0,9.128,6.823,16.837,15.864,17.93c0.722,0.088,1.458,0.133,2.189,0.133h30.406   c2.249,0,4.522,0.037,6.756,0.11c11.917,0.39,22.943,1.867,32.782,4.395c8.496,2.165,16.309,5.183,23.257,8.966l2.661,1.519   c2.767,1.638,5.402,3.403,7.834,5.277l0.125,0.094c0.422,0.31,0.836,0.633,1.243,0.972l0.16,0.129   c0.453,0.354,0.896,0.725,1.375,1.13c0.462,0.386,0.916,0.779,1.378,1.188c1.816,1.596,3.621,3.359,5.358,5.237   c3.225,3.491,6.169,7.343,8.798,11.52c0.167,0.259,0.326,0.525,0.521,0.851c0.87,1.417,1.721,2.906,2.527,4.421l29.408,55.373   l-20.561,37.297l-3.731,0.002c-12.377,0-22.522,9.736-23.171,21.95c-0.187,3.506,0.807,7.031,3.125,9.669   c2.464,2.805,5.921,4.362,9.62,4.362h35.997v0.003h78.122c8.813,0,15.983-7.182,15.983-16.009c0-3.312-1.037-6.513-2.998-9.256   c-3.774-5.277-4.037-20.081-0.553-31.058c2.913-9.16,5.188-17.049,7.049-24.438c1.086-0.046,2.17-0.091,3.254-0.145l18.349,19.789   c5.3,5.717,6.772,14.003,3.768,21.196l-1.644,3.932h-2.007c-12.845,0.002-23.284,10.497-23.197,23.361   c0.048,6.995,5.784,12.624,12.778,12.624l41.15,0.001l8.169-16.808c-0.232,1.317-0.36,2.672-0.36,4.056v0.284   c0,6.874,5.6,12.466,12.484,12.466h77.975c7.969,0,15.018-5.652,16.244-13.526c0.652-4.185-0.362-8.328-2.809-11.734   c-1.891-2.645-3.02-8.011-3.02-14.353c0-5.465,0.826-11.3,2.277-16.119c15.35-27.983,23.459-59.628,23.459-91.556v-15.123v-10.767   v-45.035c0-27.83-9.14-54.024-26.428-75.744C442.308,136.05,419.189,121.044,393.678,114.521z M399.665,129.937   c18.021,6.395,34.273,17.59,46.72,32.261c-3.75,10.511-10.156,19.839-18.721,27.295c-12.164-5.36-25.134-8.084-38.621-8.084h-3.688   c9.288-13.482,14.459-29.876,14.459-46.727C399.813,133.096,399.754,131.515,399.665,129.937z M363.419,123.729   c7.737,0,15.415,0.819,22.888,2.421c0.336,2.802,0.507,5.66,0.507,8.531c0,17.503-6.577,34.393-18.134,46.802h-33.139   c-4.742,0-9.445-0.384-14.074-1.12c10.734-13.434,16.541-29.805,16.541-47.141c0-3.192-0.225-6.363-0.623-9.493H363.419z    M259.932,139.435c-7.415-11.937-11.942-25.545-13.124-39.59c4.575,5.824,10.217,10.859,16.739,14.815   c0.064,1.164,0.109,2.334,0.109,3.507C263.656,125.453,262.381,132.657,259.932,139.435z M268.916,151.484   c4.709-9.566,7.346-20.097,7.699-30.826c6.219,2.019,12.766,3.071,19.354,3.071h28.304c0.48,3.111,0.734,6.289,0.734,9.493   c0,16.365-6.274,31.711-17.777,43.655C292.426,171.937,279.312,163.239,268.916,151.484z M74.4,213.608   c0.484-1.634,1.049-3.227,1.727-4.871l0.126-0.309c6.306-14.809,20.034-25.645,35.908-28.314l5.421-0.932v-5.214   c0.251-2.752,0.811-5.302,1.665-7.589c1.395-3.745,3.573-7.551,6.654-11.626c3.242-4.276,7.137-7.939,11.605-10.917V172.8   l-0.009,0.345c-0.006,0.591-0.058,1.17-0.161,1.785c-0.176,1.07-0.492,2.1-0.946,3.076c-1.229,2.661-3.356,4.764-5.992,5.92   c-1.382,0.606-2.843,0.93-4.348,0.959c-6.896,0.142-13.417,1.518-19.375,4.088c-3.625,1.56-7.06,3.569-10.191,5.96   c-11.585,8.777-18.128,21.526-21.697,31.399c-0.331-0.475-0.676-0.939-0.986-1.43l-1.968-2.645L74.4,213.608z M45,263.27h-0.146   c-0.208,0-0.409-0.013-0.621-0.038c-2.526-0.306-4.432-2.466-4.432-5.024c0-0.269,0.055-0.523,0.161-0.754   c0.109-0.237,0.259-0.434,0.467-0.61l2.358-2.003c1.462,2.069,2.286,4.531,2.286,7.121C45.074,262.4,45.046,262.837,45,263.27z    M118.021,268.18c-10.745-2.759-22.715-4.372-35.579-4.793c-2.375-0.078-4.792-0.117-7.182-0.117H58.038   c0.022-0.435,0.036-0.871,0.036-1.309c0-5.736-1.925-11.161-5.351-15.564l8.923-7.583c1.23-0.978,2.387-2.074,3.417-3.236   c0.063-0.069,0.118-0.146,0.18-0.218c2.459,3.26,5.293,6.218,8.463,8.825c7.737,6.365,17.087,10.337,27.043,11.485   c4.791,0.548,9.481,2.202,13.575,4.792c3.812,2.397,7.12,5.639,9.635,9.397C122.011,269.26,120.036,268.693,118.021,268.18z    M156.219,284.411l-0.704,1.116c-2.079-1.556-4.246-3.058-6.518-4.466l-3.148-2.803l-10.454-14.686   c-3.591-5.673-8.479-10.551-14.133-14.107c-5.727-3.621-12.308-5.942-19.026-6.711c-6.13-0.707-11.943-2.865-17.044-6.252   c2.008-7.185,6.78-20.216,16.573-29.07l20.417,6.871c11.736,4.446,22.123,11.93,30.042,21.646   c6.228,7.646,9.657,17.289,9.657,27.153C161.881,270.553,159.924,277.918,156.219,284.411z M281.255,433.03   c0.38,0.531,0.573,1.102,0.573,1.694c0,1.25-0.926,3.009-2.983,3.009h-62.62l8.83-9.99h30.292c3.59,0,6.5-2.91,6.5-6.5l0,0   c0-3.59-2.91-6.5-6.5-6.5h-2.521l8.905-28.495l4.395-4.973c2.988-3.38,5.697-7.052,8.114-10.916   c1.472,0.014,2.945,0.041,4.417,0.041c2.051,0,4.098-0.017,6.145-0.044c-1.62,6.118-3.545,12.675-5.912,20.118   C274.705,403.651,274.113,423.044,281.255,433.03z M236.545,414.743l4.116-4.657l-1.456,4.657H236.545z M358.564,371.816   c-6.092,9.787-6.105,22.183-0.039,31.984l0.341,0.55l-16.225,33.382l-32.791-0.001c0.116-5.524,4.646-9.984,10.196-9.985   l20.971-0.002c3.59,0,6.5-2.91,6.499-6.5l0,0c0-3.59-2.911-6.5-6.501-6.5l-4.918,0.001c4.375-11.611,1.841-24.822-6.637-33.967   l-11.203-12.084c14.304-1.236,28.469-3.144,42.412-5.717c0.729,0.639,1.476,1.259,2.232,1.869L358.564,371.816z M364.496,422.505   l9.192-18.911l-4.11-6.638c-3.491-5.638-3.483-12.637,0.021-18.267l4.123-6.625c6.703,3.638,13.906,6.138,21.416,7.437   l10.342,10.351c5.73,5.733,7.563,14.332,4.666,21.904l-1.141,2.983h-27.217C374.924,414.739,368.749,417.743,364.496,422.505z    M472.197,288.319v15.067c0,30.051-7.625,59.609-22.16,85.91l-0.313,0.565l-0.195,0.615c-1.979,6.238-3.068,13.568-3.068,20.64   c0,6.522,0.944,15.619,5.453,21.925c0.377,0.525,0.568,1.092,0.568,1.682c0,1.248-0.93,3.007-2.998,3.007h-77.896   c0.133-5.532,4.658-9.991,10.201-9.991h44.205c3.59,0,6.5-2.91,6.5-6.5l0,0c0-3.59-2.91-6.5-6.5-6.5h-3.139   c3.861-11.935,0.754-25.138-8.18-34.077l-0.391-0.392c6.768-0.692,13.275-2.686,19.248-5.897c3.379-1.816,4.35-6.224,2.088-9.323   l-0.182-0.249c-1.869-2.561-5.334-3.338-8.129-1.842c-5.641,3.02-11.913,4.595-18.41,4.595h-1.544   c-12.747,0-24.838-4.072-34.968-11.781c-8.593-6.528-15.11-15.249-18.849-25.22c-2.273-6.063-3.46-12.438-3.526-18.948   c-0.086-8.482,1.713-16.817,5.238-24.411c1.387-2.987,0.373-6.532-2.454-8.221l-0.259-0.154c-3.24-1.937-7.434-0.627-9.028,2.794   c-4.371,9.374-6.603,19.661-6.495,30.124c0.081,8.03,1.545,15.896,4.352,23.38c2.21,5.894,5.213,11.425,8.898,16.475   c-22.707,3.74-45.965,5.686-69.432,5.798c3.885-9.7,5.917-20.085,5.917-30.586v-32.96c0-3.505-2.842-6.347-6.347-6.347h-0.307   c-3.505,0-6.347,2.842-6.347,6.347v32.96c0,12.315-3.302,24.448-9.546,35.081c-2.265,3.847-4.896,7.474-7.82,10.782l-57.508,65.064   H164.95c0.114-5.523,4.646-9.981,10.205-9.981l20.967-0.008c3.59-0.001,6.499-2.912,6.498-6.502v-0.001   c-0.001-3.589-2.912-6.498-6.501-6.497h-2.386l28.242-51.232c1.692-3.069,0.576-6.929-2.493-8.621l-0.268-0.148   c-3.07-1.693-6.931-0.576-8.624,2.494l-3.647,6.616l-25.426-47.874c-0.24-0.451-0.491-0.89-0.736-1.335l11.642-16.178   c4.631-6.436,7.592-13.757,8.727-21.483c0.559-3.806-2.448-7.208-6.295-7.208h-0.313c-3.126,0-5.803,2.274-6.263,5.367   c-0.841,5.656-3.015,11.017-6.407,15.73l-8.69,12.075c-1.721-2.255-3.539-4.422-5.443-6.483c-0.744-0.804-1.502-1.584-2.265-2.35   l1.818-2.884l0.137-0.229c4.877-8.487,7.455-18.134,7.455-27.896c0-12.847-4.467-25.405-12.579-35.365   c-9.393-11.523-21.717-20.39-35.641-25.639l-9.146-3.082c2.803-0.687,5.742-1.073,8.797-1.136c2.068-0.04,4.1-0.343,6.073-0.896   l17.71,9.992c14.47,8.164,25.767,20.012,32.667,34.262c2.001,4.133,3.581,8.302,4.72,12.452c0.875,3.188,3.989,5.211,7.242,4.634   l0.304-0.055c3.701-0.656,5.993-4.359,5-7.984c-1.35-4.93-3.212-9.854-5.565-14.713c-8.06-16.644-21.193-30.447-37.98-39.918   l-11.798-6.656c1.208-1.45,2.243-3.051,3.105-4.762c4.651,1.649,9.128,3.695,13.357,6.125l0.52,0.269   c29.835,13.731,53.787,19.591,80.091,19.591c16.117,0,33.375-2.146,54.308-6.752c17.305-3.8,46.945-6.382,63.084-7.585   c3.875-0.295,7.848-0.575,12.139-0.856c3.283-0.211,5.957-0.366,7.805-0.474l1.296-0.071h1.21v-0.066l0.165-0.009h7.278   c12.908,0,25.263,2.87,36.728,8.534c28.638,14.108,46.427,42.697,46.427,74.61V288.319z M439.859,195.916   c6.395-6.299,11.615-13.565,15.489-21.548c10.413,16.354,16.155,34.966,16.776,54.584   C464.357,215.664,453.379,204.293,439.859,195.916z"/></g></symbol><symbol id="icon-seal" viewBox="0 0 512 512"><g id="Sea_x5F_lion"><g><circle cx="99.368" cy="120.124" r="6.564"/><path d="M155.09,223.057c-3.59,0-6.5,2.91-6.5,6.5v14.103c0,3.589,2.91,6.5,6.5,6.5h0.001c3.589,0,6.499-2.91,6.499-6.5v-14.103    C161.59,225.967,158.68,223.057,155.09,223.057L155.09,223.057z"/><path d="M389.249,207.967c-9.571-18.296-28.731-30.819-50.771-30.819h-50.27v6.5c0,31.63,25.642,57.272,57.272,57.272h5.63v0.001    h26.463c-4.229,11.603-10.972,22.243-19.966,31.234c-16.206,16.212-37.758,25.14-60.686,25.14    c-13.668,0-26.918-3.508-38.667-10.196c-2.957-1.683-6.706-0.825-8.611,1.995l-0.004,0.005c-2.134,3.159-1.087,7.438,2.227,9.321    c13.695,7.789,29.134,11.875,45.056,11.875c26.401,0,51.219-10.281,69.878-28.947c6.294-6.291,11.635-13.283,15.949-20.799v16.773    c0,71.976-58.349,130.324-130.324,130.324h-4.243c3.636-3.238,6.835-7.008,9.486-11.25c5.927-9.489,15.876-15.857,27.323-17.475    c0.654-0.096,2.09-0.188,3.666-0.268c3.45-0.176,6.158-3.028,6.158-6.482c0-3.713-3.108-6.676-6.816-6.483    c-2.014,0.104-3.927,0.23-4.852,0.364c-15.234,2.154-28.539,10.703-36.505,23.455c-5.438,8.703-13.93,14.782-23.915,17.119    c-2.871,0.675-5.829,1.017-8.792,1.017H108.412c3.233-6.442,8.491-11.741,14.929-15.011c4.71-2.395,10-3.66,15.299-3.66    c3.255,0,6.498-0.281,9.629-0.834c11.253-1.969,21.487-7.301,29.592-15.416c10.482-10.471,16.255-24.404,16.255-39.235v-18.592    h-6.5c-6.944,0-13.483-2.71-18.409-7.628c-4.913-4.913-7.618-11.447-7.618-18.4v-16.863c0-3.59-2.91-6.5-6.5-6.5h-0.001    c-3.589,0-6.499,2.91-6.499,6.5v16.863c0,10.426,4.058,20.225,11.43,27.596c5.824,5.815,13.151,9.569,21.098,10.896v6.128    c0,11.355-4.419,22.023-12.447,30.044c-5.772,5.779-12.946,9.71-20.848,11.445c-33.154-27.328-52.118-67.41-52.118-110.445    v-84.034c0-1.148-0.122-2.269-0.35-3.351h0.77c17.151,0,33.419-5.843,46.513-16.585c2.967-2.434,3.198-6.896,0.492-9.618l0,0    c-2.387-2.4-6.181-2.524-8.801-0.382c-10.764,8.8-24.122,13.586-38.204,13.586H77.327c-1.976-0.091-3.915-0.319-5.816-0.66v-7.915    c0-3.59-2.91-6.5-6.5-6.5s-6.5,2.91-6.5,6.5v3.426c-9.441-5.015-16.874-13.314-20.778-23.367    c14.116-3.632,24.681-16.194,25.301-31.278h41.762c55.677,0,100.811,45.134,100.811,100.811v13.815    c0,22.056,7.769,42.919,22.011,59.465c2.458,2.855,6.844,2.991,9.508,0.327c2.414-2.414,2.528-6.268,0.304-8.857    c-12.18-14.18-18.822-32.047-18.822-50.935v-13.815c0-62.856-50.954-113.811-113.811-113.811H40.248    c-10.238,0-18.539,8.3-18.539,18.539v9.611c0,15.709,6.318,29.964,16.537,40.378v21.77c0,3.589,2.91,6.5,6.5,6.5h0.001    c3.589,0,6.499-2.91,6.499-6.5v-11.818c2.327,1.307,4.754,2.454,7.265,3.433v19.269c0,3.589,2.91,6.5,6.5,6.5h0.001    c3.589,0,6.499-2.91,6.499-6.5v-15.89c1.825,0.251,3.676,0.419,5.551,0.494v0.007h0.265c0.697,0.025,1.395,0.053,2.098,0.053    c1.814-0.001,3.278,1.484,3.278,3.298v84.034c0,30.061,8.479,58.802,24.071,83.414c-2.56,0.476-5.169,0.721-7.814,0.721    c-9.026,0-17.807,2.588-25.392,7.484c-7.576,4.891-13.547,11.83-17.271,20.076c-0.807,1.793-1.164,3.693-1.06,5.633    c0.351,6.517,6.031,11.48,12.558,11.48h34.474c-2.511,3.097-4.633,6.516-6.289,10.18l-0.576,1.275v4.219    c0,6.424,5.206,11.63,11.629,11.63h106.903c3.039,0,19.599,0.003,24.882,0.003h13.607c79.155,0,143.324-64.169,143.324-143.324    v-36.401h32.26v-0.001h5.01c31.631,0,57.272-25.642,57.272-57.272v-6.5h-50.27C417.98,177.148,398.821,189.671,389.249,207.967z     M345.479,227.92c-22.203,0-40.642-16.431-43.796-37.772h25.667c1.441,12.845,7.13,24.735,16.398,33.994    c1.333,1.334,2.722,2.594,4.159,3.778H345.479z M381.193,227.806c-10.68-0.723-20.617-5.214-28.252-12.856    c-6.799-6.792-11.114-15.411-12.489-24.756c20.254,0.894,37.006,15.464,41.249,34.678    C381.548,225.854,381.38,226.833,381.193,227.806z M34.709,119.504v-9.611c0-3.054,2.485-5.539,5.539-5.539h9.75    c-0.6,8.898-6.821,16.262-15.146,18.568C34.767,121.792,34.709,120.656,34.709,119.504z M68.733,380.34    c2.708-5.414,6.795-9.982,11.885-13.268c5.479-3.537,11.821-5.406,18.341-5.406c5.404,0,10.701-0.771,15.809-2.29    c4.699,6.122,9.881,11.923,15.514,17.358c-3.916,0.712-7.732,1.933-11.337,3.605H68.733z M426.186,214.952    c-1.135,1.134-2.313,2.193-3.516,3.161c-7.586,6.134-16.702,9.496-26.44,9.78c3.102-20.895,20.858-37.066,42.449-37.714    C437.306,199.53,432.989,208.155,426.186,214.952z M476.815,190.148c-3.154,21.341-21.593,37.772-43.797,37.772h-1.821    c1.426-1.167,2.832-2.428,4.178-3.773c9.273-9.263,14.962-21.154,16.403-33.999H476.815z"/></g></g></symbol><symbol id="icon-slow" viewBox="0 0 512 512"><path d="M43.306,286.755l112.468,10.087c0.039,0.445,0.084,0.893,0.119,1.336l0.011,0.114c0.095,0.979,0.172,1.958,0.251,2.969  c0.188,2.253,0.356,4.486,0.513,6.7l0.018,0.255c0.063,0.914,0.125,1.829,0.182,2.795c0.067,1.028,0.135,2.056,0.183,3.074  l0.008,0.134c0.037,0.55,0.066,1.103,0.096,1.654l0.048,0.9c0.129,2.437,0.237,4.861,0.327,7.272  c0.068,1.693,0.118,3.357,0.167,5.021c0.02,0.681,0.038,1.352,0.049,2.022l0.003,0.115c0.017,0.503,0.025,1.007,0.034,1.51  l0.004,0.206c0.028,1.145,0.049,2.279,0.059,3.434l0.02,2.188c0.069,10.455-0.239,19.73-0.916,27.563l-0.567,6.511  c-0.375,4.082-0.122,8.159,0.689,12.108c-5.395,2.522-11.5,3.316-17.625,2.116c-5.545-1.086-10.659-3.875-14.623-7.901  c-5.993-6.088-8.875-14.168-8.092-22.654l0.559-6.527c0.367-4.261,0.745-7.352,1.078-10.077c0.827-6.773,1.371-11.227,0.621-23.88  c-0.215-3.628-3.359-6.384-6.983-6.106l0,0c-3.539,0.27-6.204,3.337-5.991,6.88c0.688,11.396,0.236,15.089-0.551,21.53  c-0.346,2.834-0.738,6.046-1.126,10.54l-0.556,6.488c-1.067,11.578,2.813,23.146,10.647,31.735c1.937,2.123,4.077,4.021,6.376,5.677  c0.811,19.434,14.154,34.575,30.6,34.575h26.389c5.364,10.52,15.077,17.47,26.217,17.47h31.554c4.003,0,7.247-3.244,7.247-7.247l0,0  c0-2.905-1.777-5.566-4.519-6.53c-7.551-2.653-13.132-11.795-13.132-22.633v-0.746c6.739-5.98,11.39-14.055,13.151-22.882  l0.117-0.572c3.71-18.641,5.754-45.908,5.605-74.82l-0.002-0.248c-0.01-1.663-0.021-3.334-0.05-4.978  c-0.058-4.383-0.177-8.926-0.354-13.502c-0.05-1.335-0.101-2.671-0.172-3.996c-0.031-0.861-0.073-1.722-0.121-2.509  c-0.041-0.857-0.083-1.714-0.131-2.511c-0.052-0.966-0.103-1.933-0.164-2.866c-0.079-1.297-0.169-2.585-0.259-3.872  c-0.014-0.254-0.035-0.515-0.059-0.768c-0.102-1.485-0.211-2.961-0.328-4.372c-0.023-0.314-0.047-0.62-0.078-0.925  c-0.072-0.935-0.153-1.864-0.236-2.695c-0.104-1.231-0.218-2.451-0.342-3.662l-0.016-0.153c-0.012-0.128-0.024-0.256-0.038-0.382  c-0.354-3.533-0.746-6.938-1.176-10.206c16.667,5.769,51.342,15.713,92.365,15.713c10.082,0,20.553-0.603,31.229-2.014  c-0.002,0.099-0.006,0.199-0.008,0.299c-0.258,12.158,0.067,24.735,0.923,37.037l-97.797-8.768  c-3.575-0.321-6.732,2.317-7.053,5.893v0.003c-0.32,3.574,2.317,6.731,5.892,7.052l49.894,4.474  c4.972,22.471,11.425,41.937,18.326,55.19l13.787,26.455c2.99,5.751,7.407,10.458,12.646,13.851  c3.76,16.581,16.551,28.236,30.861,28.236c1.089,0,2.188-0.067,3.291-0.205l11.695-1.456c5.579,6.991,13.483,11.315,22.272,11.315  h31.553c4.002,0,7.247-3.244,7.247-7.247l0,0c0-2.905-1.777-5.566-4.519-6.53c-7.551-2.653-13.132-11.795-13.132-22.633v-0.042  c0.55-0.659,1.087-1.334,1.598-2.038c7.08-9.757,9.063-22.399,5.319-33.782l-0.256-0.796c-3.121-9.934-4.668-29.266-4.591-48.112  l23.396,2.096c3.575,0.319,6.733-2.319,7.054-5.895l0,0c0.32-3.576-2.318-6.734-5.895-7.055l-24.232-2.17  c0.551-11.848,1.805-22.496,3.778-29.156c0.52-1.749,1.044-3.537,1.573-5.356l21.99,1.971c3.576,0.32,6.734-2.318,7.055-5.894l0,0  c0.32-3.576-2.318-6.734-5.894-7.055l-19.552-1.752c6.644-24.191,12.806-51.002,12.806-67.233v-19.46  c0-29.12-11.341-56.503-31.936-77.107c-20.603-20.592-47.985-31.933-77.104-31.933l-0.332,0.008  c-2.548,0.131-62.656,3.265-92.74,9.845l-13.73,2.427c-26.922,4.765-58.862,3.528-94.938-3.674  c-7.467-1.488-15.237-2.634-23.103-3.405c-7.624-0.739-15.453-1.13-23.297-1.16c-50.591,0-91.75,38.202-91.75,85.16  c0,0.771,0.011,1.541,0.033,2.345l0.005,0.141c0.021,0.581,0.041,1.162,0.07,1.735c0.098,1.851,0.263,3.722,0.486,5.52  c0.088,0.749,0.196,1.487,0.306,2.21c0.119,0.807,0.25,1.612,0.401,2.409c0.061,0.354,0.128,0.708,0.196,1.063l0.021,0.113  c0.068,0.349,0.145,0.695,0.224,1.043c0.081,0.404,0.165,0.809,0.267,1.212c0.403,1.775,0.871,3.542,1.376,5.2  c0.143,0.481,0.295,0.964,0.441,1.426c0.188,0.599,0.388,1.196,0.57,1.698c0.868,2.51,1.875,5.006,2.993,7.421  c0.191,0.438,0.393,0.865,0.605,1.292c1.181,2.443,2.479,4.824,3.818,7.008c0.267,0.448,0.544,0.888,0.859,1.385  c1.398,2.215,2.946,4.41,4.604,6.527c0.295,0.397,0.599,0.783,0.885,1.134c2.093,2.604,4.341,5.096,6.648,7.371  c0.357,0.358,0.728,0.716,1.035,1.005c1.229,1.186,2.545,2.374,3.842,3.472c0.399,0.349,0.81,0.696,1.227,1.03  c0.123,0.108,0.25,0.212,0.381,0.311c0.369,0.308,0.74,0.607,1.119,0.899c0.944,0.75,1.946,1.507,3.037,2.294  c0.536,0.391,1.083,0.771,1.597,1.12c0.443,0.307,0.888,0.614,1.275,0.865c0.436,0.294,0.872,0.585,1.317,0.86  c0.453,0.3,0.916,0.591,1.381,0.876c0.085,0.052,0.171,0.101,0.256,0.152l-17.743-1.591c-3.576-0.32-6.734,2.318-7.055,5.895l0,0  c-0.32,3.575,2.318,6.733,5.894,7.054l101.044,9.059c0.096,0.433,0.192,0.873,0.292,1.325c0.122,0.541,0.235,1.091,0.35,1.642  l0.126,0.634c0.104,0.481,0.197,0.962,0.293,1.443l0.032,0.166c0.222,1.092,0.435,2.184,0.643,3.312l0.062,0.323  c0.082,0.435,0.164,0.865,0.239,1.303l0.046,0.24c0.016,0.071,0.032,0.146,0.044,0.221l0.042,0.246  c0.111,0.584,0.213,1.179,0.32,1.812l0.561,3.264c0.145,0.881,0.29,1.771,0.432,2.712c0.197,1.262,0.395,2.523,0.583,3.798  c0.266,1.794,0.521,3.599,0.765,5.384l0.016,0.121c0.133,1.008,0.264,2.007,0.386,3.016l0.016,0.116  c0.103,0.735,0.195,1.471,0.279,2.205l0.028,0.221c0.027,0.186,0.047,0.371,0.068,0.563l0.163,1.438l-109.937-9.859  c-3.575-0.321-6.733,2.317-7.055,5.893l0,0C37.091,283.275,39.729,286.434,43.306,286.755z M151.402,414.12  c-7.375,0-13.845-6.268-16.438-14.995c3.276,0.825,6.665,1.265,10.097,1.265c5.768,0,11.395-1.186,16.595-3.464  c1.506,2.648,3.301,5.146,5.384,7.43c1.935,2.12,4.073,4.015,6.369,5.669c0.058,1.389,0.181,2.755,0.363,4.096H151.402z   M204.008,431.59c-7.374,0-13.842-6.263-16.436-14.984c3.275,0.825,6.66,1.265,10.09,1.265c5.169,0,10.272-0.986,15.044-2.846  c1.001,6.226,3.337,11.896,6.645,16.565H204.008z M359.596,386.846l-13.788-26.458c-5.988-11.501-11.67-28.315-16.25-47.965  l36.591,3.28c0.059,0.563,0.108,1.136,0.169,1.696c0.099,0.936,0.205,1.862,0.314,2.798l0.043,0.381  c0.17,1.464,0.349,2.91,0.536,4.347l0.043,0.336c0.13,1.016,0.269,2.012,0.421,3.108c0.143,1.021,0.296,2.051,0.45,3.087  c0.154,1.015,0.308,2.019,0.482,3.089l0.231,1.424c0.165,0.999,0.34,1.997,0.513,2.964c0.175,0.99,0.351,1.969,0.536,2.941  c0.369,1.926,0.749,3.832,1.142,5.668c0.186,0.885,0.379,1.751,0.582,2.617l0.038,0.17c0.204,0.914,0.421,1.818,0.636,2.702  c0.103,0.446,0.214,0.886,0.332,1.351c0.226,0.925,0.463,1.838,0.696,2.681c1.188,4.432,2.48,8.542,3.847,12.226l10.409,27.957  c0.162,0.436,0.356,0.853,0.533,1.279c-1.343,0.431-2.731,0.75-4.164,0.943l-0.258,0.031  C373.844,400.721,364.168,395.637,359.596,386.846z M393.255,421.83c-6.247,0.78-12.4-3.055-16.341-9.38  c1.283,0.137,2.574,0.228,3.877,0.228c1.351,0,2.711-0.075,4.072-0.228l0.432-0.05c3.521-0.438,6.887-1.355,10.062-2.726  c0.966,1.018,1.983,1.979,3.055,2.878c0.291,2.935,0.872,5.755,1.706,8.423L393.255,421.83z M428.832,431.59  c-6.291,0-11.922-4.561-15.051-11.315c2.661,0.623,5.413,0.959,8.215,0.966c0.03,0,0.061,0,0.09,0  c5.648,0,11.057-1.284,15.933-3.673c1.175,5.228,3.304,9.997,6.155,14.022H428.832z M42.89,179.459c0,0.617,0.034,1.228,0.055,1.841  c-0.38-0.954-0.746-1.919-1.089-2.909c-0.149-0.413-0.29-0.835-0.429-1.277c-0.126-0.397-0.253-0.796-0.387-1.247  c-0.437-1.436-0.83-2.922-1.167-4.417l-0.049-0.201c-0.057-0.217-0.097-0.435-0.149-0.698l-0.034-0.157  c-0.056-0.246-0.111-0.492-0.156-0.721l-0.02-0.1c-0.052-0.271-0.104-0.543-0.149-0.813l-0.03-0.168  c-0.123-0.638-0.228-1.285-0.325-1.946c-0.09-0.602-0.181-1.204-0.258-1.855c-0.19-1.534-0.328-3.096-0.409-4.638  c-0.026-0.496-0.043-1-0.061-1.505l-0.004-0.098c-0.018-0.641-0.026-1.289-0.026-1.938c0-39.789,35.327-72.16,78.725-72.16  c7.418,0.029,14.843,0.398,22.061,1.099c7.433,0.729,14.775,1.812,21.822,3.215c37.663,7.521,71.221,8.774,99.744,3.728l13.86-2.45  l0.263-0.053c28.245-6.205,87.02-9.39,90.582-9.578c25.585,0.044,49.641,10.029,67.745,28.125  c18.139,18.147,28.128,42.267,28.128,67.915v19.46c0,14.735-6.194,43.722-17.442,81.623c-6.439,21.729-6.131,76.618,0.565,97.93  l0.282,0.878c2.492,7.577,1.225,15.642-3.479,22.123c-4.51,6.216-11.422,9.776-18.973,9.776c-0.02,0-0.039,0-0.058,0  c-9.878-0.023-18.828-6.263-22.273-15.528l-10.407-27.952c-1.224-3.298-2.394-7.02-3.49-11.111c-0.212-0.769-0.416-1.555-0.61-2.351  l-0.038-0.149c-0.088-0.345-0.176-0.69-0.256-1.044l-0.025-0.106c-0.146-0.598-0.292-1.205-0.435-1.819l-0.174-0.771  c-0.197-0.837-0.386-1.675-0.57-2.559c-0.381-1.775-0.741-3.59-1.092-5.42c-0.175-0.911-0.339-1.832-0.506-2.773  c-0.165-0.923-0.33-1.863-0.48-2.774l-0.243-1.5c-0.156-0.956-0.302-1.912-0.446-2.862c-0.146-0.979-0.294-1.969-0.442-3.036  c-0.114-0.82-0.229-1.635-0.336-2.46l-0.056-0.442c-0.181-1.37-0.353-2.748-0.517-4.144l-0.044-0.385  c-0.116-1.001-0.233-2.002-0.341-3.03c-1.761-16.301-2.505-33.672-2.154-50.258c0.02-1.122,0.048-2.235,0.087-3.349l0.004-0.174  c0.038-1.188,0.076-2.377,0.135-3.592c0.547-13.139,1.84-24.949,3.741-34.156l6.397-30.985c0.726-3.515-1.536-6.953-5.051-7.679  H382.4c-3.515-0.726-6.952,1.535-7.678,5.05l-2.01,9.732c-8.531-14.377-20.117-21.214-27.57-24.307  c-2.729-1.132-6.918-2.133-10.496-2.861c-3.686-0.751-7.243,1.74-7.763,5.466l0,0c-0.475,3.402,1.776,6.59,5.145,7.266  c2.948,0.592,6.26,1.36,8.133,2.138c9.736,4.04,22.37,13.402,27.871,35.026c-1.585,8.137-2.741,17.935-3.392,28.672  c-59.046,8.439-113.319-10.2-126.501-15.223c-0.037-0.187-0.071-0.382-0.108-0.567c-0.214-1.047-0.427-2.074-0.649-3.12  c-0.318-1.456-0.479-2.943-0.479-4.422c0-4.527,1.521-9.01,4.277-12.614l5.099-6.653c2.184-2.849,1.644-6.929-1.206-9.111  l-0.002-0.003c-2.85-2.182-6.928-1.643-9.11,1.206l-5.103,6.658c-4.485,5.866-6.955,13.153-6.955,20.518  c0,2.411,0.263,4.833,0.771,7.159c0.206,0.974,0.413,1.967,0.612,2.944c1.392,7.023,2.558,15.197,3.468,24.294l0.021,0.192  c0.011,0.12,0.022,0.239,0.035,0.356c0.114,1.116,0.22,2.242,0.323,3.473c0.085,0.862,0.161,1.734,0.228,2.606l0.022,0.23  c0.02,0.182,0.031,0.363,0.052,0.631c0.117,1.418,0.225,2.856,0.322,4.305l0.014,0.162c0.01,0.111,0.023,0.228,0.028,0.339  l0.009,0.149c0.089,1.273,0.178,2.546,0.258,3.851c0.059,0.904,0.107,1.818,0.158,2.782c0.049,0.793,0.087,1.596,0.13,2.475  c0.047,0.779,0.084,1.559,0.112,2.338l0.006,0.111c0.068,1.274,0.116,2.56,0.165,3.853c0.172,4.469,0.288,8.902,0.346,13.203  c0.028,1.622,0.038,3.244,0.049,4.858l0.001,0.241c0.144,28.068-1.809,54.388-5.349,72.175l-0.116,0.57  c-1.284,6.436-4.785,12.273-9.854,16.434c-5.084,4.164-11.495,6.458-18.051,6.458c-8.096,0-15.561-3.295-21.019-9.276  c-5.46-5.985-8.06-13.723-7.316-21.819l0.57-6.545c0.712-8.236,1.037-17.917,0.964-28.824l-0.02-2.19  c-0.011-1.194-0.031-2.4-0.061-3.573l-0.003-0.161c-0.01-0.549-0.021-1.099-0.038-1.647c-0.011-0.71-0.03-1.421-0.052-2.148  c-0.051-1.713-0.102-3.427-0.172-5.146c-0.091-2.454-0.201-4.948-0.336-7.477l-0.047-0.872c-0.031-0.595-0.063-1.191-0.103-1.783  c-0.051-1.076-0.122-2.161-0.19-3.206c-0.057-0.956-0.121-1.912-0.187-2.868l-0.019-0.272c-0.162-2.287-0.334-4.574-0.523-6.85  c-0.082-1.041-0.164-2.083-0.266-3.124c-0.102-1.273-0.222-2.556-0.345-3.849c-0.183-1.902-0.374-3.814-0.58-5.749l-0.758-6.657  c-0.035-0.326-0.071-0.642-0.115-0.956c-0.091-0.792-0.191-1.584-0.302-2.376c-0.125-1.032-0.26-2.055-0.396-3.087l-0.02-0.148  c-0.253-1.865-0.517-3.722-0.789-5.563c-0.193-1.309-0.396-2.607-0.594-3.866c-0.144-0.96-0.299-1.909-0.461-2.895l-0.566-3.299  c-0.111-0.662-0.225-1.314-0.346-1.957c-0.038-0.233-0.082-0.466-0.129-0.691c-0.082-0.471-0.17-0.936-0.259-1.405l-0.054-0.286  c-0.217-1.178-0.445-2.347-0.676-3.479l-0.024-0.128c-0.109-0.553-0.219-1.105-0.323-1.593l-0.122-0.613  c-0.129-0.623-0.258-1.245-0.388-1.82c-0.192-0.88-0.385-1.75-0.56-2.527c-0.044-0.212-0.092-0.42-0.14-0.629l-0.109-0.487  c-0.177-0.769-0.354-1.538-0.53-2.249c-0.693-2.897-1.432-5.69-2.197-8.381c19.846-11.437,32.939-30.895,32.939-52.937  c0-1.142-0.051-2.286-0.124-3.431c0.081-2.066-0.131-4.168-0.669-6.248l-0.228-0.88c-0.535-2.828-1.278-5.628-2.191-8.374  c-0.182-0.61-0.385-1.211-0.617-1.796c-7.182-19.751-23.407-36.123-39.41-36.783c-6.772-0.271-11.543,2.211-15.754,4.406  c-4.226,2.204-7.88,4.109-14.269,4.109c-0.05,0-0.1,0-0.149-0.001c-6.545-0.029-10.239-2.021-14.517-4.327  c-4.063-2.19-8.65-4.663-15.081-4.663c-0.219,0-0.441,0.003-0.666,0.009C65.317,122.059,42.89,151.318,42.89,179.459z   M171.947,177.087c-1.14-2.35-3.741-3.75-6.329-3.4c-3.423,0.461-5.637,3.469-5.383,6.629l-3.485-1.463  c-2.85-1.196-4.994-3.773-5.342-6.845c-0.39-3.432,1.183-6.54,4.135-8.24l7.603-4.38c1.297-0.747,2.729-1.124,4.17-1.124  c1.435,0,2.877,0.374,4.2,1.129c2.019,1.15,3.398,3.166,3.98,5.415l1.813,7.003c0.245,1.388,0.426,2.783,0.542,4.185  c-0.199,2.081-1.17,4.016-2.85,5.47c-1.038,0.898-2.223,1.492-3.467,1.805C172.702,181.525,172.978,179.21,171.947,177.087z   M56.799,172.772l2.131-8.229v-0.001c0-0.776,0.234-1.541,0.685-2.175c1.954-2.754,4.7-4.104,7.428-4.104  c1.44,0,2.873,0.377,4.17,1.124l7.349,4.233c2.679,1.543,4.484,4.367,4.447,7.459c-0.042,3.453-1.991,6.341-5.132,7.659l-2.907,1.22  c0.026-1.192-0.28-2.428-1.044-3.582c-1.257-1.898-3.542-2.971-5.804-2.705c-3.968,0.466-6.361,4.337-5.246,7.969  c0.205,0.67,0.519,1.275,0.908,1.813c-1.715-0.215-3.354-0.964-4.719-2.253C56.803,179.064,56.02,175.784,56.799,172.772z   M120.523,201.784L120.523,201.784c-1.174,1.543-2.745,1.773-3.576,1.773c-0.832,0-2.403-0.23-3.577-1.772  c-1.525-2.004-0.823-3.968-0.451-4.72s1.511-2.5,4.028-2.5s3.656,1.748,4.028,2.5S122.049,199.781,120.523,201.784z   M123.447,229.853v-14.539c2.896-1.154,5.459-3.078,7.42-5.653l0,0c4.426-5.813,4.825-13.662,0.854-19.978  c-2.854-4.539-7.744-7.541-13.082-8.038c-7.95-0.74-15.226,3.787-18.069,11.255c-1.907,5.009-1.37,10.718,1.441,15.28  c2.049,3.325,5.01,5.769,8.437,7.134v13.213c-4.639-0.349-9.225-1.063-13.697-2.151l-0.14-0.033  c-0.301-0.065-0.602-0.139-0.895-0.219l-0.248-0.064c-0.171-0.042-0.346-0.082-0.517-0.135l-0.268-0.078  c-1.566-0.414-3.159-0.894-4.732-1.425l-0.128-0.041c-0.459-0.145-0.909-0.308-1.369-0.473c-0.394-0.141-0.78-0.28-1.26-0.465  l-0.167-0.062c-0.314-0.115-0.633-0.23-0.939-0.359l-0.182-0.074c-0.405-0.156-0.813-0.317-1.239-0.496  c-11.831-6.143-20.949-15.553-25.521-26.698c1.839,0.51,3.737,0.772,5.648,0.772c2.795,0,5.616-0.554,8.312-1.685l9.37-3.934  c7.103-2.981,12.337-9.404,13.343-17.041c1.148-8.726-2.992-17.03-10.516-21.363l-7.603-4.38c-2.607-1.502-5.429-2.414-8.308-2.735  c5.737-6.534,12.434-10.759,18.279-10.912c0.113-0.003,0.225-0.004,0.335-0.004c2.994,0,5.152,1.085,8.901,3.106  c4.826,2.602,10.832,5.839,20.626,5.884c0.069,0.001,0.138,0.001,0.206,0.001c9.577-0.001,15.51-3.094,20.282-5.582  c3.881-2.024,6.048-3.072,9.208-2.944c5.527,0.229,11.842,4.274,17.309,10.503c-2.73,0.362-5.403,1.256-7.882,2.684l-7.198,4.146  c-6.675,3.846-11.066,10.873-11.109,18.575c-0.049,8.8,5.096,16.521,13.101,19.882l9.802,4.113c2.695,1.132,5.516,1.686,8.312,1.686  c1.734,0,3.456-0.229,5.136-0.649C167.137,214.152,147.334,227.744,123.447,229.853z"/></symbol><symbol id="icon-suricate" viewBox="0 0 512 512"><g><path d="M195.813,71.443L195.813,71.443c-4.008,3.756-1.855,10.592,3.602,11.198c0.432,0.048,0.867,0.079,1.305,0.093   c0.182,0.006,0.363,0.009,0.545,0.009c4.752,0,9.221-2.023,12.41-5.692c5-5.753,5.295-14.426,0.713-20.517   c-3.484-4.632-8.816-6.836-14.049-6.549c-5.42,0.297-7.896,6.966-4.184,10.927l0,0c1.277,1.363,3.08,2.127,4.945,2.046   c0.955-0.042,1.924,0.318,2.627,1.069c0.621,0.662,0.945,1.525,0.916,2.431c-0.029,0.907-0.41,1.748-1.072,2.368   c-0.75,0.704-1.738,1-2.689,0.896C199.023,69.519,197.176,70.166,195.813,71.443z"/><circle cx="176.011" cy="64.352" r="6.254"/><path d="M127.15,488.563c0.033,4.87,4.072,8.77,8.943,8.77h40.219c0.01,0,0.018-0.001,0.027-0.001h24.6   c3.174,0,6.336-0.477,9.422-1.424c3.035-0.945,5.914-2.336,8.557-4.141c7.402-5.063,11.822-13.441,11.822-22.416v-21.469   c0-5.259,0.525-10.463,1.537-15.576c27.248,38.836,72.35,64.275,123.287,64.275h8.715c34.498,0,62.564-28.065,62.564-62.563   c0-11.332-8.682-20.617-19.766-21.139c-7.508-0.361-14.473,3.223-18.74,9.873c-2.1,3.276-2.984,7.146-3.014,11.039   c-0.096,12.76-10.504,23.111-23.287,23.111h-6.473c-56.48,0-102.268-45.787-102.268-102.268V161.211   c0-17.579-1.863-35.109-5.559-52.295l-0.127-0.586c-1.623-7.548-1.258-15.39,1.063-22.754l0.107-0.344   c5.217-16.389,2.518-33.868-7.408-47.955c-9.697-13.762-24.814-21.99-41.473-22.575c-0.654-0.023-1.313-0.034-1.973-0.034   c-14.588,0-29.02,3.773-41.738,10.913c-3.691,2.072-7.283,4.723-10.674,7.879L125.85,51.764c-8.65,4.61-14.113,11.85-15.041,19.986   c-0.902,7.93,2.584,15.79,9.566,21.564c2.658,2.198,5.771,3.955,9.268,5.236l0.063,0.21c0.094-0.028,0.182-0.065,0.273-0.094   c0.369,0.13,0.736,0.262,1.113,0.382l6.301,2.014c12.393,3.961,25.195,6.275,38.154,6.928c-3.498,12.081-9.619,23.151-17.885,32.25   c-0.902,0.994-1.775,1.995-2.637,2.999l-43.26,23.032l-0.375,0.216c-16.426,10.204-26.234,27.842-26.234,47.18v34.929   c0,4.562,3.674,8.313,8.236,8.328c16.271,0.051,29.523-13.171,29.523-29.431V213.22c0-5.589,2.27-10.775,6.209-14.516   c-1.326,8.015-1.977,16.527-1.977,25.659v33.45h0.004v7.771h0.004v31.771c0,2.26,0.621,4.506,1.938,6.342   c2.086,2.909,5.32,4.436,8.594,4.436c1.199,0,2.404-0.205,3.559-0.623c3.729-1.342,9.09-3.951,13.449-8.764   c4.984-5.508,7.51-12.473,7.51-20.702v-11.86c0-7.234,3.852-14.048,10.047-17.777l18.201-10.931   c16.773-10.08,27.191-28.496,27.191-48.062v-42.211c0-3.589-2.91-6.499-6.498-6.499h-0.002c-3.59,0-6.5,2.91-6.5,6.499v42.211   c0,15.029-8.004,29.176-20.887,36.918l-18.205,10.933c-10.082,6.07-16.348,17.151-16.348,28.918v11.86   c0,4.975-1.357,8.894-4.146,11.977c-1.49,1.645-3.238,2.872-4.902,3.776v-31.283h-0.004v-14.726c0-5.196,2.584-10.01,6.996-12.931   c0.668-0.442,1.424-0.943,2.197-1.536l20-15.376c2.846-2.188,3.379-6.268,1.191-9.113l-0.002-0.002   c-2.188-2.846-6.268-3.379-9.113-1.191l-19.998,15.374c-0.359,0.276-0.803,0.573-1.271,0.883   c0.084-31.233,8.459-54.356,27.133-74.914c9.83-10.822,17.039-24.022,21.031-38.398l10.352,3.883   c3.359,1.261,7.105-0.441,8.367-3.802v-0.002c1.262-3.361-0.441-7.107-3.801-8.368l-18.932-7.102h-1.178   c-13.766,0-27.391-2.078-40.531-6.142c2.42-3.72,3.818-8.12,3.818-12.737c0-3.213-0.666-6.305-1.867-9.135l30.002-15.298   c4.355-2.222,8.797-3.853,13.201-4.847c15.131-3.419,30.84-2.833,45.465,1.681c5.494,9.951,6.68,21.585,3.18,32.581l-0.109,0.344   c-3.012,9.462-3.498,19.594-1.406,29.304l0.15,0.706c3.504,16.288,5.27,32.902,5.27,49.563v193.426   c0,63.66,51.607,115.268,115.268,115.268h6.473c19.967,0,36.219-16.211,36.287-36.162c0.008-1.996,0.725-3.97,2.09-5.424   c1.584-1.686,3.754-2.555,6.053-2.452c4.068,0.192,7.377,3.849,7.377,8.153c0,27.328-22.234,49.563-49.564,49.563h-8.715   c-75.947,0-137.514-61.566-137.514-137.514v-6.701c0-3.59-2.91-6.499-6.5-6.499h-0.002c-3.59,0-6.498,2.909-6.498,6.499v6.7   c0,15.846,2.469,31.124,7.029,45.479c-12.23,16.143-18.961,36.059-18.961,56.332v21.324c0,4.652-2.207,9.074-6.021,11.737   c-3.172,2.214-6.896,3.386-10.758,3.392h-12.131v0.001H140.84c1.676-4.757,6.217-8.177,11.541-8.177h16.859   c5.545,0,10.078-4.531,10.078-10.075c0.002-20.099-10.133-47.795-23.113-63.258c-10.221-12.177-16.053-27.43-16.053-43.327v-28.439   c0-3.59-2.91-6.5-6.5-6.5h-0.002c-3.588,0-6.498,2.91-6.498,6.5v29.604c0,18.507,6.934,36.202,18.916,50.306   c10.361,12.197,19.207,35.371,20.164,52.189h-13.852C138.408,463.156,127.053,474.57,127.15,488.563z M129.828,84.159   c-0.404-0.276-0.801-0.56-1.168-0.864c-3.586-2.964-5.338-6.542-4.936-10.074c0.262-2.294,1.457-4.516,3.414-6.482   c3.756,1.633,6.273,5.375,6.273,9.574C133.412,79.37,132.041,82.214,129.828,84.159z M133.742,180.063l-8.125,5.014   c-9.83,6.068-15.701,16.589-15.701,28.144v14.272c0,7.438-4.967,13.737-11.76,15.754v-29.581c0-14.743,7.441-28.194,19.916-36.026   l21.488-11.44C137.303,170.664,135.365,175.274,133.742,180.063z M184.883,34.352c-5.459,1.233-10.924,3.234-16.242,5.947   l-25.197,12.848l10.928-10.172c2.637-2.454,5.391-4.492,8.182-6.06c10.779-6.05,23.012-9.249,35.375-9.249   c0.506,0,1.01,0.008,1.514,0.026c6.111,0.214,11.943,1.807,17.174,4.574C206.07,31.305,195.354,31.986,184.883,34.352z    M206.119,469.35v-21.471c0-14.618,4.057-29.027,11.563-41.488c1.617,3.682,3.373,7.289,5.27,10.811   c-3.445,9.891-5.211,20.193-5.211,30.682v21.469c0,4.68-2.303,9.048-6.154,11.682c-1.572,1.072-3.283,1.9-5.064,2.455   c-1.604,0.492-3.25,0.758-4.902,0.818C204.508,479.928,206.119,474.748,206.119,469.35z"/><path d="M176.01,274.162c-3.59,0-6.5,2.91-6.5,6.499v57.479c0,18.855,3.529,37.184,10.502,54.58   c1.385,3.457,5.355,5.082,8.744,3.541l0,0c3.188-1.449,4.617-5.147,3.314-8.397c-6.348-15.85-9.561-32.546-9.561-49.724v-57.479   c0-3.589-2.91-6.499-6.498-6.499H176.01z"/></g></symbol></svg>